<svg xmlns="http://www.w3.org/2000/svg" width="1000" height="1000"><defs/><path d="M450 216.668c0 27.613-22.387 50-50 50s-50-22.387-50-50c0-27.617 22.387-50 50-50s50 22.383 50 50zm200 0c0 27.613-22.387 50-50 50s-50-22.387-50-50c0-27.617 22.387-50 50-50s50 22.383 50 50zm0 0"/><path d="M300 442.5h400m-400 235h400M300 560h400M500 810c-125 0-125-150-125-250 0-125 0-250 125-250s125 150 125 250c0 125 0 250-125 250zm0 0" fill="none" stroke-linecap="round" stroke-linejoin="round" stroke="#000" stroke-width="50"/></svg>