<?xml version="1.0" encoding="UTF-8"?><svg xmlns="http://www.w3.org/2000/svg" xmlns:xlink="http://www.w3.org/1999/xlink" width="1000px" height="1000px" version="1.1"><g id="surface1"><path style="stroke:none;fill-rule:nonzero;fill:rgb(0%,0%,0%);fill-opacity:1" d="M450 216.667969C450 244.28125 427.613281 266.667969 400 266.667969 372.386719 266.667969 350 244.28125 350 216.667969 350 189.050781 372.386719 166.667969 400 166.667969 427.613281 166.667969 450 189.050781 450 216.667969zM650 216.667969C650 244.28125 627.613281 266.667969 600 266.667969 572.386719 266.667969 550 244.28125 550 216.667969 550 189.050781 572.386719 166.667969 600 166.667969 627.613281 166.667969 650 189.050781 650 216.667969zM650 216.667969"/><path style="fill:none;stroke-width:1;stroke-linecap:round;stroke-linejoin:round;stroke:rgb(0%,0%,0%);stroke-opacity:1;stroke-miterlimit:4" d="M26 8.85 34 8.85M26 13.55 34 13.55M26 11.2 34 11.2M30 16.2C27.5 16.2 27.5 13.2 27.5 11.2 27.5 8.7 27.5 6.2 30 6.2 32.5 6.2 32.5 9.2 32.5 11.2 32.5 13.7 32.5 16.2 30 16.2zM30 16.2" transform="matrix(50,0,0,50,-1000,0)"/><path style="fill:none;stroke-width:1;stroke-linecap:round;stroke-linejoin:miter;stroke:rgb(0%,0%,0%);stroke-opacity:1;stroke-miterlimit:4" d="M 26.092729 26.396775 C 27.077317 27.000026 34.946087 32.129841 35.076609 27.131544 C 35.110545 25.831987 34.129159 25.106122 33.1295 25.080017 C 31.654221 25.041493 30.112249 25.701465 30 30 C 29.887751 34.298535 28.446604 34.96114 26.8705 34.919983 C 25.870841 34.893878 24.8868 34.167943 24.923391 32.868456 C 25.053913 27.870159 32.922683 32.999974 33.907271 33.603225 " transform="matrix(49.982961,-1.305221,1.305221,49.982961,-1038.645472,39.667808)"/></g></svg>