<?xml version="1.0" encoding="UTF-8"?><svg xmlns="http://www.w3.org/2000/svg" xmlns:xlink="http://www.w3.org/1999/xlink" width="1000px" height="1000px" version="1.1"><g id="surface1"><path style="fill:none;stroke-width:1;stroke-linecap:round;stroke-linejoin:round;stroke:rgb(0%,0%,0%);stroke-opacity:1;stroke-miterlimit:4" d="M46 15 54 5M46 5 54 15" transform="matrix(50,0,0,50,-2000,0)"/><path style="fill:none;stroke-width:1;stroke-linecap:butt;stroke-linejoin:miter;stroke:rgb(0%,0%,0%);stroke-opacity:1;stroke-miterlimit:4" d="M 65 5 L 65 15 C 65 15 70 15 70 10 C 70 5 65 5 65 5 Z M 65 5 " transform="matrix(50,0,0,50,-2000,0)"/><path style="fill:none;stroke-width:1;stroke-linecap:round;stroke-linejoin:miter;stroke:rgb(0%,0%,0%);stroke-opacity:1;stroke-miterlimit:4" d="M 26.092729 26.396775 C 27.077317 27.000026 34.946087 32.129841 35.076609 27.131544 C 35.110545 25.831987 34.129159 25.106122 33.1295 25.080017 C 31.654221 25.041493 30.112249 25.701465 30 30 C 29.887751 34.298535 28.446604 34.96114 26.8705 34.919983 C 25.870841 34.893878 24.8868 34.167943 24.923391 32.868456 C 25.053913 27.870159 32.922683 32.999974 33.907271 33.603225 " transform="matrix(49.982961,-1.305221,1.305221,49.982961,-2038.645472,39.667808)"/></g></svg>