<?xml version="1.0" encoding="UTF-8"?><svg xmlns="http://www.w3.org/2000/svg" xmlns:xlink="http://www.w3.org/1999/xlink" width="1000px" height="1000px" version="1.1"><g id="surface1"><path style="fill:none;stroke-width:1;stroke-linecap:butt;stroke-linejoin:miter;stroke:rgb(0%,0%,0%);stroke-opacity:1;stroke-miterlimit:4" d="M 65 5 L 65 15 C 65 15 70 15 70 10 C 70 5 65 5 65 5 Z M 65 5 " transform="matrix(50,0,0,50,-3000,0)"/><path style="fill:none;stroke-width:1;stroke-linecap:round;stroke-linejoin:round;stroke:rgb(0%,0%,0%);stroke-opacity:1;stroke-miterlimit:4" d="M 63.322969 10 L 74.988984 10 L 71.988984 13 L 74.988984 10 L 71.988984 7 " transform="matrix(50,0,0,50,-3000,0)"/><path style="fill:none;stroke-width:1;stroke-linecap:butt;stroke-linejoin:miter;stroke:rgb(0%,0%,0%);stroke-opacity:1;stroke-miterlimit:4" d="M 83.833359 10 C 83.833359 13 86.833359 13 89.999297 10 C 92.999297 7 96.165312 7 96.165312 10 C 96.165312 13 93.165312 13 89.999297 10 C 86.999297 7 83.833359 7 83.833359 10 Z M 83.833359 10 " transform="matrix(50,0,0,50,-3000,0)"/></g></svg>