<?xml version="1.0" encoding="UTF-8"?><svg xmlns="http://www.w3.org/2000/svg" xmlns:xlink="http://www.w3.org/1999/xlink" width="1000px" height="1000px" version="1.1"><g id="surface1"><path style="fill:none;stroke-width:1;stroke-linecap:butt;stroke-linejoin:miter;stroke:rgb(0%,0%,0%);stroke-opacity:1;stroke-miterlimit:4" d="M 83.833359 10 C 83.833359 13 86.833359 13 89.999297 10 C 92.999297 7 96.165312 7 96.165312 10 C 96.165312 13 93.165312 13 89.999297 10 C 86.999297 7 83.833359 7 83.833359 10 Z M 83.833359 10 " transform="matrix(50,0,0,50,-5000,0)"/><path style="fill:none;stroke-width:1;stroke-linecap:round;stroke-linejoin:round;stroke:rgb(0%,0%,0%);stroke-opacity:1;stroke-miterlimit:4" d="M 105 6.470859 L 105 11.470859 L 115 11.470859 L 115 6.470859 " transform="matrix(50,0,0,50,-5000,0)"/><path style="stroke:none;fill-rule:nonzero;fill:rgb(0%,0%,0%);fill-opacity:1" d="M 550 743.125 C 550 770.738281 527.613281 793.125 500 793.125 C 472.386719 793.125 450 770.738281 450 743.125 C 450 715.511719 472.386719 693.125 500 693.125 C 527.613281 693.125 550 715.511719 550 743.125 Z M 550 743.125 "/></g></svg>