<?xml version="1.0" encoding="UTF-8"?><svg xmlns="http://www.w3.org/2000/svg" xmlns:xlink="http://www.w3.org/1999/xlink" width="1000px" height="1000px" version="1.1"><g id="surface1"><path style="fill:none;stroke-width:1;stroke-linecap:round;stroke-linejoin:round;stroke:rgb(0%,0%,0%);stroke-opacity:1;stroke-miterlimit:4" d="M10 25.5 10 34.5M5.5 30 14.5 30" transform="matrix(50,0,0,50,0,-1000)"/><path style="fill:none;stroke-width:1;stroke-linecap:round;stroke-linejoin:miter;stroke:rgb(0%,0%,0%);stroke-opacity:1;stroke-miterlimit:4" d="M 26.092729 26.396775 C 27.077317 27.000026 34.946087 32.129841 35.076609 27.131544 C 35.110545 25.831987 34.129159 25.106122 33.1295 25.080017 C 31.654221 25.041493 30.112249 25.701465 30 30 C 29.887751 34.298535 28.446604 34.96114 26.8705 34.919983 C 25.870841 34.893878 24.8868 34.167943 24.923391 32.868456 C 25.053913 27.870159 32.922683 32.999974 33.907271 33.603225 " transform="matrix(49.982961,-1.305221,1.305221,49.982961,-38.645472,-960.332192)"/><path style="fill:none;stroke-width:1;stroke-linecap:round;stroke-linejoin:miter;stroke:rgb(0%,0%,0%);stroke-opacity:1;stroke-miterlimit:4" d="M 12.979609 15.670938 C 11.931797 12.178828 7.475078 9.113594 7.475078 14.895156 C 7.492422 16.78375 10.353281 14.512969 11.302969 12.868125 " transform="matrix(50,0,0,50,0,-1000)"/></g></svg>