<?xml version="1.0" encoding="UTF-8"?><svg xmlns="http://www.w3.org/2000/svg" xmlns:xlink="http://www.w3.org/1999/xlink" width="1000px" height="1000px" version="1.1"><g id="surface1"><path style="fill:none;stroke-width:1;stroke-linecap:round;stroke-linejoin:round;stroke:rgb(0%,0%,0%);stroke-opacity:1;stroke-miterlimit:4" d="M 126.567813 23.830625 C 126.567813 23.830625 130.452109 28.779531 130.505391 31.443359 C 130.558672 34.107188 126.669141 35.996641 125.150781 34.877813 C 123.632344 33.758984 123.646016 30.983203 127.970156 29.302109 C 132.294297 27.620938 136.790469 32.185313 135.081797 34.211094 C 133.373047 36.236875 129.484766 35.261797 127.007422 31.87875 C 124.530078 28.495703 128.297422 24.888906 131.653828 24.950547 C 135.010234 25.012187 134.976016 26.653984 134.020078 27.773125 C 133.064063 28.892266 131.827188 29.172969 131.827188 29.172969 " transform="matrix(50,0,0,50,-6000,-1000)"/><path style="fill:none;stroke-width:1;stroke-linecap:round;stroke-linejoin:miter;stroke:rgb(0%,0%,0%);stroke-opacity:1;stroke-miterlimit:4" d="M 145 35 L 147 32 " transform="matrix(50,0,0,50,-6000,-1000)"/></g></svg>