<?xml version="1.0" encoding="UTF-8"?><svg xmlns="http://www.w3.org/2000/svg" xmlns:xlink="http://www.w3.org/1999/xlink" width="1000px" height="1000px" version="1.1"><g id="surface1"><path style="fill:none;stroke-width:1;stroke-linecap:round;stroke-linejoin:miter;stroke:rgb(0%,0%,0%);stroke-opacity:1;stroke-miterlimit:4" d="M 155 35 L 153 32 " transform="matrix(50,0,0,50,-8000,-1000)"/><path style="fill:none;stroke-width:1;stroke-linecap:butt;stroke-linejoin:miter;stroke:rgb(0%,0%,0%);stroke-opacity:1;stroke-miterlimit:4" d="M 172 28 C 172 29.104531 171.104531 30 170 30 C 168.895469 30 168 29.104531 168 28 C 168 26.895469 168.895469 26 170 26 C 171.104531 26 172 26.895469 172 28 Z M 172 28 " transform="matrix(50,0,0,50,-8000,-1000)"/><path style="fill:none;stroke-width:1;stroke-linecap:round;stroke-linejoin:round;stroke:rgb(0%,0%,0%);stroke-opacity:1;stroke-miterlimit:4" d="M170 23.832969 170 25.832969M168 28 166 28M172 28 174 28M170 30 170 31.5 167 35.632969 173 35.632969 170 31.5" transform="matrix(50,0,0,50,-8000,-1000)"/></g></svg>