<?xml version="1.0" encoding="UTF-8"?><svg xmlns="http://www.w3.org/2000/svg" xmlns:xlink="http://www.w3.org/1999/xlink" width="1000px" height="1000px" version="1.1"><g id="surface1"><path style="fill:none;stroke-width:1;stroke-linecap:round;stroke-linejoin:miter;stroke:rgb(0%,0%,0%);stroke-opacity:1;stroke-miterlimit:4" d="M 26.092729 26.396775 C 27.077317 27.000026 34.946087 32.129841 35.076609 27.131544 C 35.110545 25.831987 34.129159 25.106122 33.1295 25.080017 C 31.654221 25.041493 30.112249 25.701465 30 30 C 29.887751 34.298535 28.446604 34.96114 26.8705 34.919983 C 25.870841 34.893878 24.8868 34.167943 24.923391 32.868456 C 25.053913 27.870159 32.922683 32.999974 33.907271 33.603225 " transform="matrix(49.982961,-1.305221,1.305221,49.982961,-1038.645472,-1960.332192)"/><path style="fill:none;stroke-width:1;stroke-linecap:round;stroke-linejoin:round;stroke:rgb(0%,0%,0%);stroke-opacity:1;stroke-miterlimit:4" d="M35 50C35 50 34.510234 54.3 30 54.3 25.489766 54.3 25 50 25 50zM30 48 30 45M33.054219 47.998906 34.554219 45.400781M26.945781 47.998906 25.445781 45.400781" transform="matrix(50,0,0,50,-1000,-2000)"/><path style="fill:none;stroke-width:1;stroke-linecap:butt;stroke-linejoin:miter;stroke:rgb(0%,0%,0%);stroke-opacity:1;stroke-miterlimit:4" d="M 32 66.941641 C 32 68.04625 31.104609 68.941641 30 68.941641 C 28.895469 68.941641 28 68.04625 28 66.941641 C 28 65.837109 28.895469 64.941641 30 64.941641 C 31.104609 64.941641 32 65.837109 32 66.941641 Z M 32 66.941641 " transform="matrix(50,0,0,50,-1000,-2000)"/></g></svg>