<?xml version="1.0" encoding="UTF-8"?><svg xmlns="http://www.w3.org/2000/svg" xmlns:xlink="http://www.w3.org/1999/xlink" width="1000px" height="1000px" version="1.1"><g id="surface1"><path style="fill:none;stroke-width:1;stroke-linecap:round;stroke-linejoin:miter;stroke:rgb(0%,0%,0%);stroke-opacity:1;stroke-miterlimit:4" d="M 155 35 L 153 32 " transform="matrix(50,0,0,50,-8000,-2000)"/><path style="fill:none;stroke-width:1;stroke-linecap:round;stroke-linejoin:round;stroke:rgb(0%,0%,0%);stroke-opacity:1;stroke-miterlimit:4" d="M 166.886953 47.698594 C 167.541641 46.657656 166.664844 45.688594 168.012891 45.097422 C 169.361016 44.50625 170.617031 46.158828 171.399297 46.238281 C 172.181484 46.317656 173.870313 44.857813 174.698594 46.378125 C 175.526875 47.898359 173.421172 48.938359 173.455469 49.989609 C 173.489766 51.040781 175.310078 52.468125 174.383906 53.388984 C 173.040234 54.725078 172.285547 52.7325 171.017188 53.132188 C 169.806484 53.51375 169.075781 55.607813 167.712422 54.865078 C 166.349063 54.122422 167.761172 52.942578 167.293672 51.975938 C 166.826016 51.009219 164.255703 51.268594 164.645469 49.585625 C 165.035313 47.902656 166.232344 48.739609 166.886953 47.698594 Z M 166.886953 47.698594 " transform="matrix(50,0,0,50,-8000,-2000)"/></g></svg>