<svg xmlns="http://www.w3.org/2000/svg" width="1000" height="1000"><defs/><path d="M344.348 384.93c32.734-52.047-11.106-100.5 56.297-130.059 67.406-29.558 130.207 53.07 169.32 57.043 39.11 3.969 123.55-69.023 164.965 6.992 41.414 76.012-63.871 128.012-62.157 180.574 1.715 52.56 92.73 123.926 46.422 169.97-67.183 66.804-104.918-32.825-168.336-12.84-60.535 19.078-97.07 123.78-165.238 86.644-68.168-37.133 2.438-96.125-20.937-144.457C341.3 550.46 212.785 563.43 232.274 479.28c19.492-84.148 79.343-42.3 112.074-94.351zm0 0" stroke-linejoin="round" stroke-width="50" fill="none" stroke-linecap="round" stroke="#000"/></svg>