<?xml version="1.0" encoding="UTF-8" standalone="no"?>
<svg
   xmlns:dc="http://purl.org/dc/elements/1.1/"
   xmlns:cc="http://creativecommons.org/ns#"
   xmlns:rdf="http://www.w3.org/1999/02/22-rdf-syntax-ns#"
   xmlns:svg="http://www.w3.org/2000/svg"
   xmlns="http://www.w3.org/2000/svg"
   xmlns:sodipodi="http://sodipodi.sourceforge.net/DTD/sodipodi-0.dtd"
   xmlns:inkscape="http://www.inkscape.org/namespaces/inkscape"
   width="1000px"
   height="1000px"
   version="1.1"
   id="svg7"
   sodipodi:docname="0028-ko.svg"
   inkscape:version="1.0.2-2 (e86c870879, 2021-01-15)">
  <metadata
     id="metadata13">
    <rdf:RDF>
      <cc:Work
         rdf:about="">
        <dc:format>image/svg+xml</dc:format>
        <dc:type
           rdf:resource="http://purl.org/dc/dcmitype/StillImage" />
      </cc:Work>
    </rdf:RDF>
  </metadata>
  <defs
     id="defs11" />
  <sodipodi:namedview
     pagecolor="#ffffff"
     bordercolor="#666666"
     borderopacity="1"
     objecttolerance="10"
     gridtolerance="10"
     guidetolerance="10"
     inkscape:pageopacity="0"
     inkscape:pageshadow="2"
     inkscape:window-width="893"
     inkscape:window-height="480"
     id="namedview9"
     showgrid="false"
     inkscape:zoom="0.24711111"
     inkscape:cx="500"
     inkscape:cy="500"
     inkscape:window-x="0"
     inkscape:window-y="0"
     inkscape:window-maximized="0"
     inkscape:current-layer="svg7" />
  <g
     id="g861">
    <path
       style="fill:none;stroke:#000000;stroke-width:50;stroke-linecap:round;stroke-linejoin:round;stroke-miterlimit:4;stroke-opacity:1"
       d="m 356.85961,385.18619 c 32.7345,-52.0469 -11.1055,-100.5 56.297,-130.0586 67.4065,-29.5586 130.207,53.0703 169.3205,57.04295 39.109,3.9685 123.5505,-69.0234 164.9645,6.9922 41.414,76.0117 -63.871,128.0117 -62.156,180.5742 1.715,52.5586 92.7305,123.9258 46.422,169.96875 -67.184,66.8047 -104.918,-32.8242 -168.336,-12.8398 -60.5355,19.0781 -97.0705,123.78125 -165.2385,86.6445 -68.168,-37.1328 2.435,-96.125 -20.9375,-144.457 -23.3825,-48.33595 -151.8985,-35.3672 -132.41,-119.51565 19.492,-84.14845 79.3435,-42.3008 112.074,-94.35155 z m 0,0"
       id="path4" />
  </g>
</svg>
