<svg xmlns="http://www.w3.org/2000/svg" width="1000" height="1000"><defs/><path d="M600 347.082c0 55.23-44.77 100-100 100-55.227 0-100-44.77-100-100 0-55.227 44.773-100 100-100 55.23 0 100 44.773 100 100zM441.246 638.125c0 55.23-44.77 100-100 100-55.226 0-100-44.77-100-100 0-55.227 44.774-100 100-100 55.23 0 100 44.773 100 100zm317.5 0c0 55.23-44.77 100-100 100-55.226 0-100-44.77-100-100 0-55.227 44.774-100 100-100 55.23 0 100 44.773 100 100zm0 0" stroke-width="50" fill="none" stroke="#000"/></svg>