<?xml version="1.0" encoding="UTF-8"?><svg xmlns="http://www.w3.org/2000/svg" xmlns:xlink="http://www.w3.org/1999/xlink" width="1000px" height="1000px" version="1.1"><g id="surface1"><path style="fill:none;stroke-width:1;stroke-linecap:butt;stroke-linejoin:miter;stroke:rgb(0%,0%,0%);stroke-opacity:1;stroke-miterlimit:4" d="M32 66.941641C32 68.04625 31.104609 68.941641 30 68.941641 28.895469 68.941641 28 68.04625 28 66.941641 28 65.837109 28.895469 64.941641 30 64.941641 31.104609 64.941641 32 65.837109 32 66.941641zM28.824922 72.7625C28.824922 73.867109 27.929531 74.7625 26.824922 74.7625 25.720391 74.7625 24.824922 73.867109 24.824922 72.7625 24.824922 71.657969 25.720391 70.7625 26.824922 70.7625 27.929531 70.7625 28.824922 71.657969 28.824922 72.7625zM35.174922 72.7625C35.174922 73.867109 34.279531 74.7625 33.174922 74.7625 32.070391 74.7625 31.174922 73.867109 31.174922 72.7625 31.174922 71.657969 32.070391 70.7625 33.174922 70.7625 34.279531 70.7625 35.174922 71.657969 35.174922 72.7625zM35.174922 72.7625" transform="matrix(50,0,0,50,-1000,-3000)"/></g></svg>