<?xml version="1.0" encoding="UTF-8"?><svg xmlns="http://www.w3.org/2000/svg" xmlns:xlink="http://www.w3.org/1999/xlink" width="1000px" height="1000px" version="1.1"><g id="surface1"><path style="fill:none;stroke-width:1;stroke-linecap:butt;stroke-linejoin:miter;stroke:rgb(0%,0%,0%);stroke-opacity:1;stroke-miterlimit:4" d="M 35.174922 72.7625 C 35.174922 73.867109 34.279531 74.7625 33.174922 74.7625 C 32.070391 74.7625 31.174922 73.867109 31.174922 72.7625 C 31.174922 71.657969 32.070391 70.7625 33.174922 70.7625 C 34.279531 70.7625 35.174922 71.657969 35.174922 72.7625 Z M 35.174922 72.7625 " transform="matrix(50,0,0,50,-2000,-3000)"/><path style="fill:none;stroke-width:1;stroke-linecap:round;stroke-linejoin:round;stroke:rgb(0%,0%,0%);stroke-opacity:1;stroke-miterlimit:4" d="M 47 68 C 47 68 50.099453 62.119297 53 65.7 C 56.74625 70.324609 49.881641 75.251797 47.852422 76.166641 " transform="matrix(50,0,0,50,-2000,-3000)"/><path style="fill:none;stroke-width:1;stroke-linecap:round;stroke-linejoin:round;stroke:rgb(0%,0%,0%);stroke-opacity:1;stroke-miterlimit:4" d="M 49.262109 70.941406 C 49.707109 70.531094 50.212969 70.239453 50.667734 69.353906 " transform="matrix(50,0,0,50,-2000,-3000)"/></g></svg>