<?xml version="1.0" encoding="UTF-8"?><svg xmlns="http://www.w3.org/2000/svg" xmlns:xlink="http://www.w3.org/1999/xlink" width="1000px" height="1000px" version="1.1"><g id="surface1"><path style="fill:none;stroke-width:1;stroke-linecap:butt;stroke-linejoin:miter;stroke:rgb(0%,0%,0%);stroke-opacity:1;stroke-miterlimit:4" d="M 94.970859 70 C 94.970859 71.380703 93.851562 72.5 92.470859 72.5 C 91.090156 72.5 89.970859 71.380703 89.970859 70 C 89.970859 68.619297 91.090156 67.5 92.470859 67.5 C 93.851562 67.5 94.970859 68.619297 94.970859 70 Z M 94.970859 70 " transform="matrix(50,0,0,50,-5000,-3000)"/><path style="fill:none;stroke-width:1;stroke-linecap:round;stroke-linejoin:round;stroke:rgb(0%,0%,0%);stroke-opacity:1;stroke-miterlimit:4" d="M 110 70 L 110 71.5 L 107 75.633047 L 113 75.633047 L 110 71.5 " transform="matrix(50,0,0,50,-5000,-3000)"/><path style="fill:none;stroke-width:1;stroke-linecap:round;stroke-linejoin:round;stroke:rgb(0%,0%,0%);stroke-opacity:1;stroke-miterlimit:4" d="M 110.613047 68.804063 C 113.704766 69.42375 117.207578 64.725547 113.28875 64.954219 C 109.278281 65.188203 110 72 110 72 C 110 72 110.179219 66.698047 106.893906 67.506641 C 103.786328 68.271484 106.048359 71.627031 109.357266 69.77 " transform="matrix(50,0,0,50,-5000,-3000)"/></g></svg>