<?xml version="1.0" encoding="UTF-8"?><svg xmlns="http://www.w3.org/2000/svg" xmlns:xlink="http://www.w3.org/1999/xlink" width="1000px" height="1000px" version="1.1"><g id="surface1"><path style="fill:none;stroke-width:1;stroke-linecap:butt;stroke-linejoin:miter;stroke:rgb(0%,0%,0%);stroke-opacity:1;stroke-miterlimit:4" d="M 28.824922 72.7625 C 28.824922 73.867109 27.929531 74.7625 26.824922 74.7625 C 25.720391 74.7625 24.824922 73.867109 24.824922 72.7625 C 24.824922 71.657969 25.720391 70.7625 26.824922 70.7625 C 27.929531 70.7625 28.824922 71.657969 28.824922 72.7625 Z M 28.824922 72.7625 " transform="matrix(50,0,0,50,0,-4000)"/><path style="fill:none;stroke-width:1;stroke-linecap:round;stroke-linejoin:round;stroke:rgb(0%,0%,0%);stroke-opacity:1;stroke-miterlimit:4" d="M 7.25 90.500026 L 9.875 94.500026 L 12.5 90.500026 " transform="matrix(50,0,0,50,0,-4105.83334)"/><path style="fill:none;stroke-width:1;stroke-linecap:round;stroke-linejoin:miter;stroke:rgb(0%,0%,0%);stroke-opacity:1;stroke-miterlimit:4" d="M15 104.83C15 106.83 14 107.33 13 107.83M5 104.83C5 106.83 6 107.33 7 107.83" transform="matrix(50,0,0,50,0,-4000)"/></g></svg>