<?xml version="1.0" encoding="UTF-8"?><svg xmlns="http://www.w3.org/2000/svg" xmlns:xlink="http://www.w3.org/1999/xlink" width="1000px" height="1000px" version="1.1"><g id="surface1"><path style="fill:none;stroke-width:1;stroke-linecap:butt;stroke-linejoin:miter;stroke:rgb(0%,0%,0%);stroke-opacity:1;stroke-miterlimit:4" d="M28.824922 72.7625C28.824922 73.867109 27.929531 74.7625 26.824922 74.7625 25.720391 74.7625 24.824922 73.867109 24.824922 72.7625 24.824922 71.657969 25.720391 70.7625 26.824922 70.7625 27.929531 70.7625 28.824922 71.657969 28.824922 72.7625zM35.174922 72.7625C35.174922 73.867109 34.279531 74.7625 33.174922 74.7625 32.070391 74.7625 31.174922 73.867109 31.174922 72.7625 31.174922 71.657969 32.070391 70.7625 33.174922 70.7625 34.279531 70.7625 35.174922 71.657969 35.174922 72.7625zM35.174922 72.7625" transform="matrix(50,0,0,50,-1000,-4000)"/><path style="fill:none;stroke-width:1;stroke-linecap:round;stroke-linejoin:round;stroke:rgb(0%,0%,0%);stroke-opacity:1;stroke-miterlimit:4" d="M 25 88 C 25 88 27 95.5 30 90 C 33 84.5 35 92 35 92 " transform="matrix(50,0,0,50,-1000,-4000)"/><path style="fill:none;stroke-width:1;stroke-linecap:round;stroke-linejoin:miter;stroke:rgb(0%,0%,0%);stroke-opacity:1;stroke-miterlimit:4" d="M 15 104.83 C 15 106.83 14 107.33 13 107.83 " transform="matrix(50,0,0,50,-1000,-4000)"/></g></svg>