<?xml version="1.0" encoding="UTF-8"?><svg xmlns="http://www.w3.org/2000/svg" xmlns:xlink="http://www.w3.org/1999/xlink" width="1000px" height="1000px" version="1.1"><g id="surface1"><path style="fill:none;stroke-width:1;stroke-linecap:butt;stroke-linejoin:miter;stroke:rgb(0%,0%,0%);stroke-opacity:1;stroke-miterlimit:4" d="M 35.174922 72.7625 C 35.174922 73.867109 34.279531 74.7625 33.174922 74.7625 C 32.070391 74.7625 31.174922 73.867109 31.174922 72.7625 C 31.174922 71.657969 32.070391 70.7625 33.174922 70.7625 C 34.279531 70.7625 35.174922 71.657969 35.174922 72.7625 Z M 35.174922 72.7625 " transform="matrix(50,0,0,50,-2000,-4000)"/><path style="fill:none;stroke-width:1;stroke-linecap:round;stroke-linejoin:round;stroke:rgb(0%,0%,0%);stroke-opacity:1;stroke-miterlimit:4" d="M 46 85 L 54 85 L 54 95 L 46 95 Z M 46 85 " transform="matrix(50,0,0,50,-2000,-4000)"/><path style="fill:none;stroke-width:1;stroke-linecap:butt;stroke-linejoin:miter;stroke:rgb(0%,0%,0%);stroke-opacity:1;stroke-miterlimit:4" d="M 52.5 106.441641 C 52.5 107.822422 51.380703 108.941641 50 108.941641 C 48.619297 108.941641 47.5 107.822422 47.5 106.441641 C 47.5 105.060937 48.619297 103.941641 50 103.941641 C 51.380703 103.941641 52.5 105.060937 52.5 106.441641 Z M 52.5 106.441641 " transform="matrix(50,0,0,50,-2000,-4000)"/></g></svg>