<?xml version="1.0" encoding="UTF-8"?><svg xmlns="http://www.w3.org/2000/svg" xmlns:xlink="http://www.w3.org/1999/xlink" width="1000px" height="1000px" version="1.1"><g id="surface1"><path style="fill:none;stroke-width:1;stroke-linecap:round;stroke-linejoin:round;stroke:rgb(0%,0%,0%);stroke-opacity:1;stroke-miterlimit:4" d="M 135.5 90 C 135.5 91.656875 133.037578 93 130 93 C 126.962422 93 124.5 91.656875 124.5 90 C 124.5 88.343125 126.962422 87 130 87 C 133.037578 87 135.5 88.343125 135.5 90 Z M 135.5 90 " transform="matrix(50,0,0,50,-6000,-4000)"/><path style="stroke:none;fill-rule:nonzero;fill:rgb(0%,0%,0%);fill-opacity:1" d="M 562.5 500 C 562.5 534.519531 534.519531 562.5 500 562.5 C 465.480469 562.5 437.5 534.519531 437.5 500 C 437.5 465.480469 465.480469 437.5 500 437.5 C 534.519531 437.5 562.5 465.480469 562.5 500 Z M 562.5 500 "/><path style="fill:none;stroke-width:1;stroke-linecap:butt;stroke-linejoin:miter;stroke:rgb(0%,0%,0%);stroke-opacity:1;stroke-miterlimit:4" d="M 148.825 106.095859 C 148.825 107.200469 147.929531 108.095859 146.825 108.095859 C 145.720391 108.095859 144.825 107.200469 144.825 106.095859 C 144.825 104.991328 145.720391 104.095859 146.825 104.095859 C 147.929531 104.095859 148.825 104.991328 148.825 106.095859 Z M 148.825 106.095859 " transform="matrix(50,0,0,50,-6000,-4000)"/></g></svg>