<?xml version="1.0" encoding="UTF-8"?><svg xmlns="http://www.w3.org/2000/svg" xmlns:xlink="http://www.w3.org/1999/xlink" width="1000px" height="1000px" version="1.1"><g id="surface1"><path style="fill:none;stroke-width:1;stroke-linecap:round;stroke-linejoin:round;stroke:rgb(0%,0%,0%);stroke-opacity:1;stroke-miterlimit:4" d="M 146 85 C 146 85 145.000156 95 150.000078 95 C 155 95 154 85 154 85 " transform="matrix(50,0,0,50,-7000,-4000)"/><path style="fill:none;stroke-width:1;stroke-linecap:butt;stroke-linejoin:miter;stroke:rgb(0%,0%,0%);stroke-opacity:1;stroke-miterlimit:4" d="M165 90.000078 170.000078 90.000078 170.000078 85 170.000078 95 170.000078 90 175 90.000078M148.825 106.095859C148.825 107.200469 147.929531 108.095859 146.825 108.095859 145.720391 108.095859 144.825 107.200469 144.825 106.095859 144.825 104.991328 145.720391 104.095859 146.825 104.095859 147.929531 104.095859 148.825 104.991328 148.825 106.095859zM155.175 106.095859C155.175 107.200469 154.279531 108.095859 153.175 108.095859 152.070391 108.095859 151.175 107.200469 151.175 106.095859 151.175 104.991328 152.070391 104.095859 153.175 104.095859 154.279531 104.095859 155.175 104.991328 155.175 106.095859zM155.175 106.095859" transform="matrix(50,0,0,50,-7000,-4000)"/></g></svg>