<?xml version="1.0" encoding="UTF-8"?><svg xmlns="http://www.w3.org/2000/svg" xmlns:xlink="http://www.w3.org/1999/xlink" width="1000px" height="1000px" version="1.1"><g id="surface1"><path style="fill:none;stroke-width:1;stroke-linecap:round;stroke-linejoin:round;stroke:rgb(0%,0%,0%);stroke-opacity:1;stroke-miterlimit:4" d="M 175 90 C 175 92.761406 172.761406 95 170 95 C 167.238594 95 165 92.761406 165 90 C 165 87.238594 167.238594 85 170 85 C 172.761406 85 175 87.238594 175 90 Z M 175 90 " transform="matrix(50,0,0,50,-8000,-4000)"/><path style="fill:none;stroke-width:1;stroke-linecap:butt;stroke-linejoin:miter;stroke:rgb(0%,0%,0%);stroke-opacity:1;stroke-miterlimit:4" d="M165 90.000078 170.000078 90.000078 170.000078 85 170.000078 95 170.000078 90 175 90.000078M155.175 106.095859C155.175 107.200469 154.279531 108.095859 153.175 108.095859 152.070391 108.095859 151.175 107.200469 151.175 106.095859 151.175 104.991328 152.070391 104.095859 153.175 104.095859 154.279531 104.095859 155.175 104.991328 155.175 106.095859zM188.825 106.095859C188.825 107.200469 187.929531 108.095859 186.825 108.095859 185.720391 108.095859 184.825 107.200469 184.825 106.095859 184.825 104.991328 185.720391 104.095859 186.825 104.095859 187.929531 104.095859 188.825 104.991328 188.825 106.095859zM188.825 106.095859" transform="matrix(50,0,0,50,-8000,-4000)"/></g></svg>