<?xml version="1.0" encoding="UTF-8"?><svg xmlns="http://www.w3.org/2000/svg" xmlns:xlink="http://www.w3.org/1999/xlink" width="1000px" height="1000px" version="1.1"><g id="surface1"><path style="fill:none;stroke-width:1;stroke-linecap:butt;stroke-linejoin:miter;stroke:rgb(0%,0%,0%);stroke-opacity:1;stroke-miterlimit:4" d="M 165 90.000078 L 170.000078 90.000078 L 170.000078 85 L 170.000078 95 L 170.000078 90 L 175 90.000078 " transform="matrix(50,0,0,50,-9000,-4000)"/><path style="fill:none;stroke-width:1;stroke-linecap:round;stroke-linejoin:round;stroke:rgb(0%,0%,0%);stroke-opacity:1;stroke-miterlimit:4" d="M 194 88 C 194 90.209141 192.209141 92 190 92 C 187.790859 92 186 90.209141 186 88 C 186 85.790859 187.790859 84 190 84 C 192.209141 84 194 85.790859 194 88 Z M 194 88 " transform="matrix(50,0,0,50,-9000,-4000)"/><path style="fill:none;stroke-width:1;stroke-linecap:butt;stroke-linejoin:miter;stroke:rgb(0%,0%,0%);stroke-opacity:1;stroke-miterlimit:4" d="M192 94C192 95.104531 191.104531 96 190 96 188.895469 96 188 95.104531 188 94 188 92.895469 188.895469 92 190 92 191.104531 92 192 92.895469 192 94zM188.825 106.095859C188.825 107.200469 187.929531 108.095859 186.825 108.095859 185.720391 108.095859 184.825 107.200469 184.825 106.095859 184.825 104.991328 185.720391 104.095859 186.825 104.095859 187.929531 104.095859 188.825 104.991328 188.825 106.095859zM195.175 106.095859C195.175 107.200469 194.279531 108.095859 193.175 108.095859 192.070391 108.095859 191.175 107.200469 191.175 106.095859 191.175 104.991328 192.070391 104.095859 193.175 104.095859 194.279531 104.095859 195.175 104.991328 195.175 106.095859zM195.175 106.095859" transform="matrix(50,0,0,50,-9000,-4000)"/></g></svg>