<?xml version="1.0" encoding="UTF-8"?><svg xmlns="http://www.w3.org/2000/svg" xmlns:xlink="http://www.w3.org/1999/xlink" width="1000px" height="1000px" version="1.1"><g id="surface1"><path style="fill:none;stroke-width:1;stroke-linecap:round;stroke-linejoin:round;stroke:rgb(0%,0%,0%);stroke-opacity:1;stroke-miterlimit:4" d="M 34 110.728984 C 34 112.938125 32.209141 114.728984 30 114.728984 C 27.790859 114.728984 26 112.938125 26 110.728984 C 26 108.519844 27.790859 106.728984 30 106.728984 C 32.209141 106.728984 34 108.519844 34 110.728984 Z M 34 110.728984 " transform="matrix(50,0,0,50,-1000,-5000)"/><path style="fill:none;stroke-width:1;stroke-linecap:round;stroke-linejoin:round;stroke:rgb(0%,0%,0%);stroke-opacity:1;stroke-miterlimit:4" d="M 24.5 115.5875 C 22.768125 109.124063 24.704531 104.529141 30 104.529141 C 35.295469 104.529141 37.2425 109.084453 35.5 115.5875 " transform="matrix(50,0,0,50,-1000,-5000)"/><path style="fill:none;stroke-width:1;stroke-linecap:round;stroke-linejoin:miter;stroke:rgb(0%,0%,0%);stroke-opacity:1;stroke-miterlimit:4" d="M 15 104.83 C 15 106.83 14 107.33 13 107.83 " transform="matrix(50,0,0,50,-1000,-5000)"/></g></svg>