<?xml version="1.0" encoding="UTF-8"?><svg xmlns="http://www.w3.org/2000/svg" xmlns:xlink="http://www.w3.org/1999/xlink" width="1000px" height="1000px" version="1.1"><g id="surface1"><path style="fill:none;stroke-width:1;stroke-linecap:round;stroke-linejoin:round;stroke:rgb(0%,0%,0%);stroke-opacity:1;stroke-miterlimit:4" d="M 134 105 L 130.000078 105 L 130.000078 115 L 134 115 " transform="matrix(50,0,0,50,-6000,-5000)"/><path style="stroke:none;fill-rule:nonzero;fill:rgb(0%,0%,0%);fill-opacity:1" d="M 353.925781 500 C 353.925781 527.613281 331.539062 550 303.925781 550 C 276.3125 550 253.925781 527.613281 253.925781 500 C 253.925781 472.386719 276.3125 450 303.925781 450 C 331.539062 450 353.925781 472.386719 353.925781 500 Z M 353.925781 500 "/><path style="fill:none;stroke-width:1;stroke-linecap:butt;stroke-linejoin:miter;stroke:rgb(0%,0%,0%);stroke-opacity:1;stroke-miterlimit:4" d="M 148.825 106.095859 C 148.825 107.200469 147.929531 108.095859 146.825 108.095859 C 145.720391 108.095859 144.825 107.200469 144.825 106.095859 C 144.825 104.991328 145.720391 104.095859 146.825 104.095859 C 147.929531 104.095859 148.825 104.991328 148.825 106.095859 Z M 148.825 106.095859 " transform="matrix(50,0,0,50,-6000,-5000)"/></g></svg>