<svg xmlns="http://www.w3.org/2000/svg" width="1000" height="1000"><defs/><path d="M1250-499.996h250.004V-750v500-250l249.996.004M441.25 304.793c0 55.23-44.773 100-100 100-55.23 0-100-44.77-100-100 0-55.227 44.77-100 100-100 55.227 0 100 44.773 100 100zm317.5 0c0 55.23-44.773 100-100 100-55.23 0-100-44.77-100-100 0-55.227 44.77-100 100-100 55.227 0 100 44.773 100 100zm0 0" fill="none" stroke="#000" stroke-width="50"/><path d="M671.23 559.172c0 114.785-76.664 207.836-171.23 207.836-94.566 0-171.23-93.051-171.23-207.836 0-114.785 76.664-207.836 171.23-207.836 94.566 0 171.23 93.05 171.23 207.836zm0 0" fill="none" stroke-linecap="round" stroke-linejoin="round" stroke="#000" stroke-width="50"/><path d="M548.531 631.816c0 27.614-22.386 50-50 50-27.617 0-50-22.386-50-50 0-27.613 22.383-50 50-50 27.614 0 50 22.387 50 50zm0 0"/></svg>