<?xml version="1.0" encoding="UTF-8"?><svg xmlns="http://www.w3.org/2000/svg" xmlns:xlink="http://www.w3.org/1999/xlink" width="1000px" height="1000px" version="1.1"><g id="surface1"><path style="fill:none;stroke-width:1;stroke-linecap:butt;stroke-linejoin:miter;stroke:rgb(0%,0%,0%);stroke-opacity:1;stroke-miterlimit:4" d="M165 90.000078 170.000078 90.000078 170.000078 85 170.000078 95 170.000078 90 175 90.000078M148.825 106.095859C148.825 107.200469 147.929531 108.095859 146.825 108.095859 145.720391 108.095859 144.825 107.200469 144.825 106.095859 144.825 104.991328 145.720391 104.095859 146.825 104.095859 147.929531 104.095859 148.825 104.991328 148.825 106.095859zM155.175 106.095859C155.175 107.200469 154.279531 108.095859 153.175 108.095859 152.070391 108.095859 151.175 107.200469 151.175 106.095859 151.175 104.991328 152.070391 104.095859 153.175 104.095859 154.279531 104.095859 155.175 104.991328 155.175 106.095859zM155.175 106.095859" transform="matrix(50,0,0,50,-7000,-5000)"/><path style="fill:none;stroke-width:1;stroke-linecap:round;stroke-linejoin:round;stroke:rgb(0%,0%,0%);stroke-opacity:1;stroke-miterlimit:4" d="M 153.424609 111.183437 C 153.424609 113.479141 151.891328 115.340156 150 115.340156 C 148.108672 115.340156 146.575391 113.479141 146.575391 111.183437 C 146.575391 108.887734 148.108672 107.026719 150 107.026719 C 151.891328 107.026719 153.424609 108.887734 153.424609 111.183437 Z M 153.424609 111.183437 " transform="matrix(50,0,0,50,-7000,-5000)"/><path style="stroke:none;fill-rule:nonzero;fill:rgb(0%,0%,0%);fill-opacity:1" d="M 548.53125 631.816406 C 548.53125 659.429688 526.144531 681.816406 498.53125 681.816406 C 470.914062 681.816406 448.53125 659.429688 448.53125 631.816406 C 448.53125 604.203125 470.914062 581.816406 498.53125 581.816406 C 526.144531 581.816406 548.53125 604.203125 548.53125 631.816406 Z M 548.53125 631.816406 "/></g></svg>