<?xml version="1.0" encoding="UTF-8" standalone="no"?>
<svg
   xmlns:dc="http://purl.org/dc/elements/1.1/"
   xmlns:cc="http://creativecommons.org/ns#"
   xmlns:rdf="http://www.w3.org/1999/02/22-rdf-syntax-ns#"
   xmlns:svg="http://www.w3.org/2000/svg"
   xmlns="http://www.w3.org/2000/svg"
   xmlns:sodipodi="http://sodipodi.sourceforge.net/DTD/sodipodi-0.dtd"
   xmlns:inkscape="http://www.inkscape.org/namespaces/inkscape"
   width="1000px"
   height="1000px"
   version="1.1"
   id="svg9"
   sodipodi:docname="0057-mu.svg"
   inkscape:version="1.0.2-2 (e86c870879, 2021-01-15)">
  <metadata
     id="metadata15">
    <rdf:RDF>
      <cc:Work
         rdf:about="">
        <dc:format>image/svg+xml</dc:format>
        <dc:type
           rdf:resource="http://purl.org/dc/dcmitype/StillImage" />
      </cc:Work>
    </rdf:RDF>
  </metadata>
  <defs
     id="defs13" />
  <sodipodi:namedview
     pagecolor="#ffffff"
     bordercolor="#666666"
     borderopacity="1"
     objecttolerance="10"
     gridtolerance="10"
     guidetolerance="10"
     inkscape:pageopacity="0"
     inkscape:pageshadow="2"
     inkscape:window-width="1366"
     inkscape:window-height="705"
     id="namedview11"
     showgrid="false"
     inkscape:zoom="0.13344965"
     inkscape:cx="-653.49436"
     inkscape:cy="200.27678"
     inkscape:window-x="-8"
     inkscape:window-y="-8"
     inkscape:window-maximized="1"
     inkscape:current-layer="svg9" />
  <g
     id="g866"
     transform="translate(0,14.0995)">
    <path
       style="fill:none;stroke:#000000;stroke-width:50;stroke-linecap:butt;stroke-linejoin:miter;stroke-miterlimit:4;stroke-opacity:1"
       d="M 758.75,304.793"
       id="path849" />
    <path
       style="fill:none;stroke:#000000;stroke-width:50;stroke-linecap:butt;stroke-linejoin:miter;stroke-miterlimit:4;stroke-opacity:1"
       d="m 758.75,304.793 c 0,55.2305 -44.7735,100 -100,100 -55.2305,0 -100,-44.7695 -100,-100 0,-55.2265 44.7695,-100 100,-100 55.2265,0 100,44.7735 100,100 z"
       id="path847" />
    <path
       style="fill:none;stroke:#000000;stroke-width:50;stroke-linecap:butt;stroke-linejoin:miter;stroke-miterlimit:4;stroke-opacity:1"
       d="m 441.25,304.793 c 0,55.2305 -44.7735,100 -100,100 -55.2305,0 -100,-44.7695 -100,-100 0,-55.2265 44.7695,-100 100,-100 55.2265,0 100,44.7735 100,100 z"
       id="path845" />
    <path
       style="fill:none;stroke:#000000;stroke-width:50;stroke-linecap:round;stroke-linejoin:round;stroke-miterlimit:4;stroke-opacity:1"
       d="M 671.2305,559.172"
       id="path853" />
    <path
       style="fill:none;stroke:#000000;stroke-width:50;stroke-linecap:round;stroke-linejoin:round;stroke-miterlimit:4;stroke-opacity:1"
       d="m 671.2305,559.172 c 0,114.785 -76.664,207.836 -171.2305,207.836 -94.5665,0 -171.2305,-93.051 -171.2305,-207.836 0,-114.7855 76.664,-207.836 171.2305,-207.836 94.5665,0 171.2305,93.0505 171.2305,207.836 z"
       id="path4" />
    <path
       style="fill:#000000;fill-opacity:1;fill-rule:nonzero;stroke:none"
       d="M 548.53125,631.81641"
       id="path857" />
    <path
       style="fill:#000000;fill-opacity:1;fill-rule:nonzero;stroke:none"
       d="m 548.53125,631.81641 c 0,27.61328 -22.38672,50 -50,50 -27.61719,0 -50,-22.38672 -50,-50 0,-27.61329 22.38281,-50 50,-50 27.61328,0 50,22.38671 50,50 z"
       id="path6" />
  </g>
</svg>
