<?xml version="1.0" encoding="UTF-8"?><svg xmlns="http://www.w3.org/2000/svg" xmlns:xlink="http://www.w3.org/1999/xlink" width="1000px" height="1000px" version="1.1"><g id="surface1"><path style="fill:none;stroke-width:1;stroke-linecap:butt;stroke-linejoin:miter;stroke:rgb(0%,0%,0%);stroke-opacity:1;stroke-miterlimit:4" d="M165 90.000078 170.000078 90.000078 170.000078 85 170.000078 95 170.000078 90 175 90.000078M155.175 106.095859C155.175 107.200469 154.279531 108.095859 153.175 108.095859 152.070391 108.095859 151.175 107.200469 151.175 106.095859 151.175 104.991328 152.070391 104.095859 153.175 104.095859 154.279531 104.095859 155.175 104.991328 155.175 106.095859zM155.175 106.095859" transform="matrix(50,0,0,50,-8000,-5000)"/><path style="fill:none;stroke-width:1;stroke-linecap:round;stroke-linejoin:round;stroke:rgb(0%,0%,0%);stroke-opacity:1;stroke-miterlimit:4" d="M 167 116 C 167 116 173 114.3 173 110 C 173 105.7 167 104 167 104 C 167 104 169.368672 105.7 169.368672 110 C 169.368672 114.3 167 116 167 116 Z M 167 116 " transform="matrix(50,0,0,50,-8000,-5000)"/><path style="fill:none;stroke-width:1;stroke-linecap:butt;stroke-linejoin:miter;stroke:rgb(0%,0%,0%);stroke-opacity:1;stroke-miterlimit:4" d="M 188.825 106.095859 C 188.825 107.200469 187.929531 108.095859 186.825 108.095859 C 185.720391 108.095859 184.825 107.200469 184.825 106.095859 C 184.825 104.991328 185.720391 104.095859 186.825 104.095859 C 187.929531 104.095859 188.825 104.991328 188.825 106.095859 Z M 188.825 106.095859 " transform="matrix(50,0,0,50,-8000,-5000)"/></g></svg>