<svg xmlns="http://www.w3.org/2000/svg" width="1000" height="1000"><defs/><g fill="none" stroke="#000" stroke-width="50"><path d="M-750-499.996h250.004V-750v500-250l249.996.004M600-300c0 55.227-44.773 100-100 100s-100-44.773-100-100 44.773-100 100-100 100 44.773 100 100zM441.25 304.793c0 55.23-44.773 100-100 100-55.23 0-100-44.77-100-100 0-55.227 44.77-100 100-100 55.227 0 100 44.773 100 100zm317.5 0c0 55.23-44.773 100-100 100-55.23 0-100-44.77-100-100 0-55.227 44.77-100 100-100 55.227 0 100 44.773 100 100zm0 0"/><path d="M300 400s-50 350 200 350 200-350 200-350" stroke-linecap="round" stroke-linejoin="round"/></g></svg>