<?xml version="1.0" encoding="UTF-8"?><svg xmlns="http://www.w3.org/2000/svg" xmlns:xlink="http://www.w3.org/1999/xlink" width="1000px" height="1000px" version="1.1"><g id="surface1"><path style="fill:none;stroke-width:1;stroke-linecap:round;stroke-linejoin:round;stroke:rgb(0%,0%,0%);stroke-opacity:1;stroke-miterlimit:4" d="M 106 165 L 114 165 L 114 175 L 106 175 Z M 106 165 " transform="matrix(50,0,0,50,-5000,-8000)"/><path style="fill:none;stroke-width:1;stroke-linecap:round;stroke-linejoin:round;stroke:rgb(0%,0%,0%);stroke-opacity:1;stroke-miterlimit:4" d="M 112.5 171 C 112.5 172.380703 111.380703 173.5 110 173.5 C 108.619297 173.5 107.5 172.380703 107.5 171 C 107.5 169.619297 108.619297 168.5 110 168.5 C 111.380703 168.5 112.5 169.619297 112.5 171 Z M 112.5 171 " transform="matrix(50,0,0,50,-5000,-8000)"/><path style="fill:none;stroke-width:1;stroke-linecap:round;stroke-linejoin:round;stroke:rgb(0%,0%,0%);stroke-opacity:1;stroke-miterlimit:4" d="M109 171C109 171.552266 109.447734 172 110 172 110.552266 172 111 171.552266 111 171M110 166.25 110 167.25M112.083906 166.5 111.583906 167.366016M107.916094 166.5 108.416094 167.366016" transform="matrix(50,0,0,50,-5000,-8000)"/></g></svg>