<?xml version="1.0" encoding="UTF-8"?><svg xmlns="http://www.w3.org/2000/svg" xmlns:xlink="http://www.w3.org/1999/xlink" width="1000px" height="1000px" version="1.1"><g id="surface1"><path style="fill:none;stroke-width:1;stroke-linecap:round;stroke-linejoin:round;stroke:rgb(0%,0%,0%);stroke-opacity:1;stroke-miterlimit:4" d="M 55 190 C 55 192.761406 52.761406 195 50 195 C 47.238594 195 45 192.761406 45 190 C 45 187.238594 47.238594 185 50 185 C 52.761406 185 55 187.238594 55 190 Z M 55 190 " transform="matrix(50,0,0,50,-2000,-9000)"/><path style="fill:none;stroke-width:1;stroke-linecap:round;stroke-linejoin:round;stroke:rgb(0%,0%,0%);stroke-opacity:1;stroke-miterlimit:4" d="M 52.75 190 C 52.75 191.51875 51.51875 192.75 50 192.75 C 48.48125 192.75 47.25 191.51875 47.25 190 C 47.25 188.48125 48.48125 187.25 50 187.25 C 51.51875 187.25 52.75 188.48125 52.75 190 Z M 52.75 190 " transform="matrix(50,0,0,50,-2000,-9000)"/></g></svg>