<svg xmlns="http://www.w3.org/2000/svg" width="1000" height="1000"><defs/><path d="M273.543 285h400s133.336-4.906 133.336 172.016C806.879 633.934 514.793 600 514.793 600v150m-291.25 0V600m97.082 150V600m97.082 150V600" fill="none" stroke-linecap="round" stroke-linejoin="round" stroke="#000" stroke-width="50"/><path d="M572.086 450c0 27.613-22.387 50-50 50-27.617 0-50-22.387-50-50s22.383-50 50-50c27.613 0 50 22.387 50 50zm151.457 0c0 27.613-22.387 50-50 50s-50-22.387-50-50 22.387-50 50-50 50 22.387 50 50zm0 0"/></svg>