<?xml version="1.0" encoding="UTF-8"?><svg xmlns="http://www.w3.org/2000/svg" xmlns:xlink="http://www.w3.org/1999/xlink" width="1000px" height="1000px" version="1.1"><g id="surface1"><path style="fill:none;stroke-width:1;stroke-linecap:round;stroke-linejoin:round;stroke:rgb(0%,0%,0%);stroke-opacity:1;stroke-miterlimit:4" d="M166 185.7 171.883359 185.7C171.883359 185.7 175.079297 185.601875 175.079297 189.140312 175.079297 192.678672 170.825 192 170.825 192L170.825 195M165 195 165 192M166.941641 195 166.941641 192M168.883281 195 168.883281 192" transform="matrix(50,0,0,50,-8000,-9000)"/><path style="stroke:none;fill-rule:nonzero;fill:rgb(0%,0%,0%);fill-opacity:1" d="M519.167969 450C519.167969 477.613281 496.78125 500 469.167969 500 441.554688 500 419.167969 477.613281 419.167969 450 419.167969 422.386719 441.554688 400 469.167969 400 496.78125 400 519.167969 422.386719 519.167969 450zM670.625 450C670.625 477.613281 648.242188 500 620.625 500 593.011719 500 570.625 477.613281 570.625 450 570.625 422.386719 593.011719 400 620.625 400 648.242188 400 670.625 422.386719 670.625 450zM670.625 450"/></g></svg>