<?xml version="1.0" encoding="UTF-8"?><svg xmlns="http://www.w3.org/2000/svg" xmlns:xlink="http://www.w3.org/1999/xlink" width="1000px" height="1000px" version="1.1"><g id="surface1"><path style="fill:none;stroke-width:1;stroke-linecap:round;stroke-linejoin:round;stroke:rgb(0%,0%,0%);stroke-opacity:1;stroke-miterlimit:4" d="M 65 232 L 67 235 L 73 225.7 " transform="matrix(50,0,0,50,-3000,-11000)"/><path style="fill:none;stroke-width:1;stroke-linecap:round;stroke-linejoin:round;stroke:rgb(0%,0%,0%);stroke-opacity:1;stroke-miterlimit:4" d="M 75 232 L 73 235 L 67 225.7 " transform="matrix(50,0,0,50,-3000,-11000)"/><path style="fill:none;stroke-width:1;stroke-linecap:butt;stroke-linejoin:miter;stroke:rgb(0%,0%,0%);stroke-opacity:1;stroke-miterlimit:4" d="M 88.6 247.1 C 88.6 247.928438 87.928438 248.6 87.1 248.6 C 86.271563 248.6 85.6 247.928438 85.6 247.1 C 85.6 246.271563 86.271563 245.6 87.1 245.6 C 87.928438 245.6 88.6 246.271563 88.6 247.1 Z M 88.6 247.1 " transform="matrix(50,0,0,50,-3000,-11000)"/></g></svg>