<?xml version="1.0" encoding="UTF-8" standalone="no"?>
<svg
   xmlns:dc="http://purl.org/dc/elements/1.1/"
   xmlns:cc="http://creativecommons.org/ns#"
   xmlns:rdf="http://www.w3.org/1999/02/22-rdf-syntax-ns#"
   xmlns:svg="http://www.w3.org/2000/svg"
   xmlns="http://www.w3.org/2000/svg"
   xmlns:sodipodi="http://sodipodi.sourceforge.net/DTD/sodipodi-0.dtd"
   xmlns:inkscape="http://www.inkscape.org/namespaces/inkscape"
   width="1000px"
   height="1000px"
   version="1.1"
   id="svg7"
   sodipodi:docname="0120-nasin-kulupu.svg"
   inkscape:version="1.0.2-2 (e86c870879, 2021-01-15)">
  <metadata
     id="metadata13">
    <rdf:RDF>
      <cc:Work
         rdf:about="">
        <dc:format>image/svg+xml</dc:format>
        <dc:type
           rdf:resource="http://purl.org/dc/dcmitype/StillImage" />
      </cc:Work>
    </rdf:RDF>
  </metadata>
  <defs
     id="defs11" />
  <sodipodi:namedview
     pagecolor="#ffffff"
     bordercolor="#666666"
     borderopacity="1"
     objecttolerance="10"
     gridtolerance="10"
     guidetolerance="10"
     inkscape:pageopacity="0"
     inkscape:pageshadow="2"
     inkscape:window-width="893"
     inkscape:window-height="480"
     id="namedview9"
     showgrid="false"
     inkscape:zoom="0.24711111"
     inkscape:cx="500"
     inkscape:cy="500"
     inkscape:window-x="0"
     inkscape:window-y="0"
     inkscape:window-maximized="0"
     inkscape:current-layer="svg7" />
  <g
     id="g866">
    <path
       style="fill:none;stroke:#000000;stroke-width:50;stroke-linecap:round;stroke-linejoin:round;stroke-miterlimit:4;stroke-opacity:1"
       d="m 500.0039,804.375 v -225 l -150,150 150,-150 150,150 -150,-150 v -100"
       id="path2" />
    <path
       style="fill:none;stroke:#000000;stroke-width:50;stroke-linecap:butt;stroke-linejoin:miter;stroke-miterlimit:4;stroke-opacity:1"
       d="m 600.0039,295.625 c 0,55.2265 -44.76955,100 -100,100 -55.22655,0 -100,-44.7735 -100,-100 0,-55.2305 44.77345,-100 100,-100 55.23045,0 100,44.7695 100,100 z M 388.33205,507.293 c 0,55.2305 -44.76955,100 -100,100 -55.2266,0 -100,-44.7695 -100,-100 0,-55.2265 44.7734,-100 100,-100 55.23045,0 100,44.7735 100,100 z m 423.3359,0 c 0,55.2305 -44.7734,100 -100,100 -55.23045,0 -100,-44.7695 -100,-100 0,-55.2265 44.76955,-100 100,-100 55.2266,0 100,44.7735 100,100 z m 0,0"
       id="path4" />
  </g>
</svg>
