<?xml version="1.0" encoding="UTF-8"?><svg xmlns="http://www.w3.org/2000/svg" xmlns:xlink="http://www.w3.org/1999/xlink" width="1000px" height="1000px" version="1.1"><g id="surface1"><path style="fill:none;stroke-width:1;stroke-linecap:round;stroke-linejoin:round;stroke:rgb(0%,0%,0%);stroke-opacity:1;stroke-miterlimit:4" d="M 10 256.058359 L 10 251.558359 L 7 254.558359 L 10 251.558359 L 13 254.558359 L 10 251.558359 L 10 249.558359 " transform="matrix(50,0,0,50,0,-12000)"/><path style="fill:none;stroke-width:1;stroke-linecap:butt;stroke-linejoin:miter;stroke:rgb(0%,0%,0%);stroke-opacity:1;stroke-miterlimit:4" d="M12 245.883359C12 246.987891 11.104609 247.883359 10 247.883359 8.895469 247.883359 8 246.987891 8 245.883359 8 244.77875 8.895469 243.883359 10 243.883359 11.104609 243.883359 12 244.77875 12 245.883359zM7.766563 250.116719C7.766563 251.221328 6.871172 252.116719 5.766563 252.116719 4.662031 252.116719 3.766563 251.221328 3.766563 250.116719 3.766563 249.012188 4.662031 248.116719 5.766563 248.116719 6.871172 248.116719 7.766563 249.012188 7.766563 250.116719zM16.233281 250.116719C16.233281 251.221328 15.337813 252.116719 14.233281 252.116719 13.128672 252.116719 12.233281 251.221328 12.233281 250.116719 12.233281 249.012188 13.128672 248.116719 14.233281 248.116719 15.337813 248.116719 16.233281 249.012188 16.233281 250.116719zM16.233281 250.116719" transform="matrix(50,0,0,50,0,-12000)"/></g></svg>