<?xml version="1.0" encoding="UTF-8"?><svg xmlns="http://www.w3.org/2000/svg" xmlns:xlink="http://www.w3.org/1999/xlink" width="1000px" height="1000px" version="1.1"><g id="surface1"><path style="fill:none;stroke-width:1;stroke-linecap:butt;stroke-linejoin:miter;stroke:rgb(0%,0%,0%);stroke-opacity:1;stroke-miterlimit:4" d="M 16.233281 250.116719 C 16.233281 251.221328 15.337813 252.116719 14.233281 252.116719 C 13.128672 252.116719 12.233281 251.221328 12.233281 250.116719 C 12.233281 249.012188 13.128672 248.116719 14.233281 248.116719 C 15.337813 248.116719 16.233281 249.012188 16.233281 250.116719 Z M 16.233281 250.116719 " transform="matrix(50,0,0,50,-1000,-12000)"/><path style="fill:none;stroke-width:1;stroke-linecap:round;stroke-linejoin:round;stroke:rgb(0%,0%,0%);stroke-opacity:1;stroke-miterlimit:4" d="M33.74 250.000026C33.74 252.065573 32.065547 253.740026 30 253.740026 27.934453 253.740026 26.26 252.065573 26.26 250.000026 26.26 247.934479 27.934453 246.260026 30 246.260026 32.065547 246.260026 33.74 247.934479 33.74 250.000026zM26.537266 248.002292 24.805156 247.002292M33.462734 248.002292 35.194844 247.002292M30 254.000026 30 256.000026" transform="matrix(50,0,0,50,-1000,-12026.458332)"/></g></svg>