<?xml version="1.0" encoding="UTF-8"?><svg xmlns="http://www.w3.org/2000/svg" xmlns:xlink="http://www.w3.org/1999/xlink" width="1000px" height="1000px" version="1.1"><g id="surface1"><path style="fill:none;stroke-width:1;stroke-linecap:round;stroke-linejoin:round;stroke:rgb(0%,0%,0%);stroke-opacity:1;stroke-miterlimit:4" d="M 86.5 253.8 L 93.5 246.2 " transform="matrix(50,0,0,50,-4000,-12000)"/><path style="fill:none;stroke-width:1;stroke-linecap:butt;stroke-linejoin:miter;stroke:rgb(0%,0%,0%);stroke-opacity:1;stroke-miterlimit:4" d="M88.6 247.1C88.6 247.928438 87.928438 248.6 87.1 248.6 86.271563 248.6 85.6 247.928438 85.6 247.1 85.6 246.271562 86.271563 245.6 87.1 245.6 87.928438 245.6 88.6 246.271562 88.6 247.1zM94.4 252.9C94.4 253.728438 93.728437 254.4 92.9 254.4 92.071562 254.4 91.4 253.728438 91.4 252.9 91.4 252.071562 92.071562 251.4 92.9 251.4 93.728437 251.4 94.4 252.071562 94.4 252.9zM94.4 252.9" transform="matrix(50,0,0,50,-4000,-12000)"/></g></svg>