<?xml version="1.0" encoding="UTF-8"?><svg xmlns="http://www.w3.org/2000/svg" xmlns:xlink="http://www.w3.org/1999/xlink" width="1000px" height="1000px" version="1.1"><g id="surface1"><path style="fill:none;stroke-width:1;stroke-linecap:butt;stroke-linejoin:miter;stroke:rgb(0%,0%,0%);stroke-opacity:1;stroke-miterlimit:4" d="M 94.4 252.9 C 94.4 253.728438 93.728437 254.4 92.9 254.4 C 92.071562 254.4 91.4 253.728438 91.4 252.9 C 91.4 252.071562 92.071562 251.4 92.9 251.4 C 93.728437 251.4 94.4 252.071562 94.4 252.9 Z M 94.4 252.9 " transform="matrix(50,0,0,50,-5000,-12000)"/><path style="fill:none;stroke-width:1;stroke-linecap:round;stroke-linejoin:round;stroke:rgb(0%,0%,0%);stroke-opacity:1;stroke-miterlimit:4" d="M110.000078 243.832969 110.000078 249.999687M107.442344 253.65 112.557656 253.649922M112.367344 253.649922 107.632578 253.649922M111.420391 251.613984 108.579531 255.685937M108.579531 251.613984 111.420391 255.685937" transform="matrix(50,0,0,50,-5000,-12000)"/></g></svg>