<?xml version="1.0" encoding="UTF-8"?><svg xmlns="http://www.w3.org/2000/svg" xmlns:xlink="http://www.w3.org/1999/xlink" width="1000px" height="1000px" version="1.1"><g id="surface1"><path style="fill:none;stroke-width:1;stroke-linecap:round;stroke-linejoin:round;stroke:rgb(0%,0%,0%);stroke-opacity:1;stroke-miterlimit:4" d="M145.000011 75 145.000011 70 155.000011 70 155.000011 75 155.000011 73C154.000011 72 151.000011 72 150.000011 73L150.000011 71.5 150.000011 75 150.000011 73C149.000011 74 146.000011 74 145.000011 73M150.00009 68.000078 150.00009 65.000078M153.054308 67.998984 154.554308 65.400859M146.945871 67.998984 145.445871 65.400859" transform="matrix(50,0,0,50,-7000.000572,-3000)"/><path style="fill:none;stroke-width:1;stroke-linecap:butt;stroke-linejoin:miter;stroke:rgb(0%,0%,0%);stroke-opacity:1;stroke-miterlimit:4" d="M 35.174924 73.291659 C 35.174924 74.396268 34.279533 75.291659 33.174924 75.291659 C 32.070392 75.291659 31.174924 74.396268 31.174924 73.291659 C 31.174924 72.187128 32.070392 71.291659 33.174924 71.291659 C 34.279533 71.291659 35.174924 72.187128 35.174924 73.291659 Z M 35.174924 73.291659 " transform="matrix(-50,0.000000000000006123,-0.000000000000006123,-50,2999.996185,4985.215759)"/></g></svg>