<?xml version="1.0" encoding="UTF-8"?><svg xmlns="http://www.w3.org/2000/svg" xmlns:xlink="http://www.w3.org/1999/xlink" width="1000px" height="1000px" version="1.1"><g id="surface1"><path style="fill:none;stroke-width:1;stroke-linecap:round;stroke-linejoin:round;stroke:rgb(0%,0%,0%);stroke-opacity:1;stroke-miterlimit:4" d="M 146 255 L 146 245 L 154 245 " transform="matrix(50,0,0,50,-7000,-12000)"/><path style="fill:none;stroke-width:1;stroke-linecap:butt;stroke-linejoin:miter;stroke:rgb(0%,0%,0%);stroke-opacity:1;stroke-miterlimit:4" d="M28.824924 73.291659C28.824924 74.396268 27.929533 75.291659 26.824924 75.291659 25.720392 75.291659 24.824924 74.396268 24.824924 73.291659 24.824924 72.187128 25.720392 71.291659 26.824924 71.291659 27.929533 71.291659 28.824924 72.187128 28.824924 73.291659zM35.174924 73.291659C35.174924 74.396268 34.279533 75.291659 33.174924 75.291659 32.070392 75.291659 31.174924 74.396268 31.174924 73.291659 31.174924 72.187128 32.070392 71.291659 33.174924 71.291659 34.279533 71.291659 35.174924 72.187128 35.174924 73.291659zM35.174924 73.291659" transform="matrix(-50,0.000000000000006123,-0.000000000000006123,-50,1999.996185,4985.215759)"/></g></svg>