<?xml version="1.0" encoding="UTF-8"?><svg xmlns="http://www.w3.org/2000/svg" xmlns:xlink="http://www.w3.org/1999/xlink" width="1000px" height="1000px" version="1.1"><g id="surface1"><path style="fill:none;stroke-width:1;stroke-linecap:round;stroke-linejoin:round;stroke:rgb(0%,0%,0%);stroke-opacity:1;stroke-miterlimit:4" d="M132.240469 72.388516C132.240469 74.045312 131.121172 75.388516 129.740469 75.388516 128.359766 75.388516 127.240469 74.045312 127.240469 72.388516 127.240469 70.731641 128.359766 69.388516 129.740469 69.388516 131.121172 69.388516 132.240469 70.731641 132.240469 72.388516zM127.942266 71.941172 133.62625 71.941172M130.000078 68.000078 130.000078 65.000078M133.054297 67.998984 134.554297 65.400859M126.945859 67.998984 125.445859 65.400859" transform="matrix(50,0,0,50,-6000,-3000)"/><path style="fill:none;stroke-width:1;stroke-linecap:butt;stroke-linejoin:miter;stroke:rgb(0%,0%,0%);stroke-opacity:1;stroke-miterlimit:4" d="M 28.824924 73.291659 C 28.824924 74.396268 27.929533 75.291659 26.824924 75.291659 C 25.720392 75.291659 24.824924 74.396268 24.824924 73.291659 C 24.824924 72.187128 25.720392 71.291659 26.824924 71.291659 C 27.929533 71.291659 28.824924 72.187128 28.824924 73.291659 Z M 28.824924 73.291659 " transform="matrix(-50,0.000000000000006123,-0.000000000000006123,-50,999.996185,4985.215759)"/></g></svg>