<?xml version="1.0" encoding="UTF-8"?><svg xmlns="http://www.w3.org/2000/svg" xmlns:xlink="http://www.w3.org/1999/xlink" width="1000px" height="1000px" version="1.1"><g id="surface1"><path style="fill:none;stroke-width:1;stroke-linecap:round;stroke-linejoin:round;stroke:rgb(0%,0%,0%);stroke-opacity:1;stroke-miterlimit:4" d="M 191.999985 251.500039 C 191.999985 253.433007 190.432953 255.000039 188.499985 255.000039 C 186.567016 255.000039 184.999985 253.433007 184.999985 251.500039 C 184.999985 249.566992 186.567016 248.000039 188.499985 248.000039 C 190.432953 248.000039 191.999985 249.566992 191.999985 251.500039 Z M 191.999985 251.500039 " transform="matrix(50,0,0,50,-9012.499237,-11987.517556)"/><path style="fill:none;stroke-width:1;stroke-linecap:round;stroke-linejoin:round;stroke:rgb(0%,0%,0%);stroke-opacity:1;stroke-miterlimit:4" d="M -188.499672 -248.000039 C -188.499672 -246.584414 -189.352407 -245.308164 -190.660297 -244.766445 C -191.96811 -244.224726 -193.4735 -244.524101 -194.474516 -245.525117 C -195.475532 -246.526132 -195.774985 -248.031523 -195.233266 -249.339414 C -194.691469 -250.647226 -193.415297 -251.500039 -191.999672 -251.500039 " transform="matrix(-50,0,0,-50,-9012.499237,-11987.517556)"/></g></svg>