<?xml version="1.0" encoding="UTF-8"?><svg xmlns="http://www.w3.org/2000/svg" xmlns:xlink="http://www.w3.org/1999/xlink" width="1000px" height="1000px" version="1.1"><g id="surface1"><path style="fill:none;stroke-width:1;stroke-linecap:round;stroke-linejoin:round;stroke:rgb(0%,0%,0%);stroke-opacity:1;stroke-miterlimit:4" d="M 28.370578 269.155909 C 24.132609 271.86419 22.879953 266.882862 25.127063 265.243878 C 27.37425 263.604971 29.040109 266.327628 28.370109 269.155909 C 27.830656 271.433253 27.508156 274.927081 27.508156 274.927081 C 27.508156 274.927081 30.458938 268.44544 33.136359 269.001143 C 35.813781 269.556924 36.206672 272.801299 33.114875 273.787784 " transform="matrix(50,0,0,50,-982.8961,-12995.322784)"/><path style="stroke:none;fill-rule:nonzero;fill:rgb(0%,0%,0%);fill-opacity:1" d="M 702.925781 573.851562 C 702.925781 601.464844 680.539062 623.851562 652.925781 623.851562 C 625.3125 623.851562 602.925781 601.464844 602.925781 573.851562 C 602.925781 546.234375 625.3125 523.851562 652.925781 523.851562 C 680.539062 523.851562 702.925781 546.234375 702.925781 573.851562 Z M 702.925781 573.851562 "/></g></svg>