<?xml version="1.0" encoding="UTF-8"?><svg xmlns="http://www.w3.org/2000/svg" xmlns:xlink="http://www.w3.org/1999/xlink" width="1000px" height="1000px" version="1.1"><g id="surface1"><path style="fill:none;stroke-width:1;stroke-linecap:butt;stroke-linejoin:miter;stroke:rgb(0%,0%,0%);stroke-opacity:1;stroke-miterlimit:4" d="M 94.4 252.9 C 94.4 253.728438 93.728437 254.4 92.9 254.4 C 92.071562 254.4 91.4 253.728438 91.4 252.9 C 91.4 252.071562 92.071562 251.4 92.9 251.4 C 93.728437 251.4 94.4 252.071562 94.4 252.9 Z M 94.4 252.9 " transform="matrix(50,0,0,50,-4000,-13000)"/><path style="fill:none;stroke-width:1;stroke-linecap:round;stroke-linejoin:round;stroke:rgb(0%,0%,0%);stroke-opacity:1;stroke-miterlimit:4" d="M 94.470859 265 C 94.470859 265 93.470859 265.7 89.470859 268 C 85.470938 270.3 84.470859 270.000156 84.470859 270.000156 C 84.470859 270.000156 86.193828 270.115703 89.470859 272 C 93.470859 274.3 94.470859 275 94.470859 275 " transform="matrix(50,0,0,50,-4000,-13000)"/><path style="fill:none;stroke-width:1;stroke-linecap:round;stroke-linejoin:round;stroke:rgb(0%,0%,0%);stroke-opacity:1;stroke-miterlimit:4" d="M 93.470859 265.7 C 93.470859 265.7 94.470859 268 94.470859 270 C 94.470859 272 93.470859 274.3 93.470859 274.3 " transform="matrix(50,0,0,50,-4000,-13000)"/><path style="fill:none;stroke-width:1;stroke-linecap:round;stroke-linejoin:round;stroke:rgb(0%,0%,0%);stroke-opacity:1;stroke-miterlimit:4" d="M 94.170859 268 C 94.170859 268 92.470859 268.000234 92.470859 270.000156 C 92.470859 272 94.170859 272 94.170859 272 " transform="matrix(50,0,0,50,-4000,-13000)"/></g></svg>