<?xml version="1.0" encoding="UTF-8"?><svg xmlns="http://www.w3.org/2000/svg" xmlns:xlink="http://www.w3.org/1999/xlink" width="1000px" height="1000px" version="1.1"><g id="surface1"><path style="fill:none;stroke-width:1;stroke-linecap:butt;stroke-linejoin:miter;stroke:rgb(0%,0%,0%);stroke-opacity:1;stroke-miterlimit:4" d="M 94.4 252.9 C 94.4 253.728438 93.728437 254.4 92.9 254.4 C 92.071562 254.4 91.4 253.728438 91.4 252.9 C 91.4 252.071562 92.071562 251.4 92.9 251.4 C 93.728437 251.4 94.4 252.071562 94.4 252.9 Z M 94.4 252.9 " transform="matrix(50,0,0,50,-5000,-13000)"/><path style="fill:none;stroke-width:1;stroke-linecap:round;stroke-linejoin:round;stroke:rgb(0%,0%,0%);stroke-opacity:1;stroke-miterlimit:4" d="M 115 270 C 115 272.761406 112.761406 275 110 275 C 107.238594 275 105 272.761406 105 270 C 105 267.238594 107.238594 265 110 265 C 112.761406 265 115 267.238594 115 270 Z M 115 270 " transform="matrix(50,0,0,50,-5000,-13000)"/><path style="fill:none;stroke-width:1;stroke-linecap:round;stroke-linejoin:round;stroke:rgb(0%,0%,0%);stroke-opacity:1;stroke-miterlimit:4" d="M 105 265 L 110.000078 270 L 115 265 " transform="matrix(50,0,0,50,-5000,-13000)"/></g></svg>