<svg xmlns="http://www.w3.org/2000/svg" width="1000" height="1000"><defs/><g fill="none" stroke="#000" stroke-width="50"><path d="M399.996 691.05c0-55.23 44.774-100 100-100 55.227 0 100 44.77 100 100 0 55.227-44.773 100-100 100-55.226 0-100-44.773-100-100zM558.75 320.633c0-55.23 44.77-100 100-100 55.227 0 100 44.77 100 100 0 55.226-44.773 100-100 100-55.23 0-100-44.774-100-100zm-317.5 0c0-55.23 44.77-100 100-100 55.227 0 100 44.77 100 100 0 55.226-44.773 100-100 100-55.23 0-100-44.774-100-100zm0 0"/><path d="M250 573.543l250.004-100 249.996 100" stroke-linecap="round" stroke-linejoin="round"/></g></svg>