<?xml version="1.0" encoding="UTF-8"?><svg xmlns="http://www.w3.org/2000/svg" xmlns:xlink="http://www.w3.org/1999/xlink" width="1000px" height="1000px" version="1.1"><g id="surface1"><path style="fill:none;stroke-width:1;stroke-linecap:butt;stroke-linejoin:miter;stroke:rgb(0%,0%,0%);stroke-opacity:1;stroke-miterlimit:4" d="M 28.824924 73.291659 C 28.824924 74.396268 27.929533 75.291659 26.824924 75.291659 C 25.720392 75.291659 24.824924 74.396268 24.824924 73.291659 C 24.824924 72.187128 25.720392 71.291659 26.824924 71.291659 C 27.929533 71.291659 28.824924 72.187128 28.824924 73.291659 Z M 28.824924 73.291659 " transform="matrix(-50,0.000000000000006123,-0.000000000000006123,-50,999.996185,3985.215759)"/><path style="stroke:none;fill-rule:nonzero;fill:rgb(0%,0%,0%);fill-opacity:1" d="M 450.414062 500 C 450.414062 527.617188 472.800781 550 500.414062 550 C 528.03125 550 550.414062 527.617188 550.414062 500 C 550.414062 472.386719 528.03125 450 500.414062 450 C 472.800781 450 450.414062 472.386719 450.414062 500 Z M 450.414062 500 "/><path style="fill:none;stroke-width:1;stroke-linecap:round;stroke-linejoin:round;stroke:rgb(0%,0%,0%);stroke-opacity:1;stroke-miterlimit:4" d="M13.999924 74.704315 13.999924 64.704315M5.999924 74.704315 5.999924 64.704315" transform="matrix(-50,0.000000000000006123,-0.000000000000006123,-50,999.996185,3985.215759)"/></g></svg>