<?xml version="1.0" encoding="UTF-8" standalone="no"?>
<svg
   xmlns:dc="http://purl.org/dc/elements/1.1/"
   xmlns:cc="http://creativecommons.org/ns#"
   xmlns:rdf="http://www.w3.org/1999/02/22-rdf-syntax-ns#"
   xmlns:svg="http://www.w3.org/2000/svg"
   xmlns="http://www.w3.org/2000/svg"
   xmlns:sodipodi="http://sodipodi.sourceforge.net/DTD/sodipodi-0.dtd"
   xmlns:inkscape="http://www.inkscape.org/namespaces/inkscape"
   width="1000px"
   height="1000px"
   version="1.1"
   id="svg11"
   sodipodi:docname="0139-kijetesantakalu.svg"
   inkscape:version="1.0.2-2 (e86c870879, 2021-01-15)">
  <metadata
     id="metadata17">
    <rdf:RDF>
      <cc:Work
         rdf:about="">
        <dc:format>image/svg+xml</dc:format>
        <dc:type
           rdf:resource="http://purl.org/dc/dcmitype/StillImage" />
      </cc:Work>
    </rdf:RDF>
  </metadata>
  <defs
     id="defs15" />
  <sodipodi:namedview
     pagecolor="#ffffff"
     bordercolor="#666666"
     borderopacity="1"
     objecttolerance="10"
     gridtolerance="10"
     guidetolerance="10"
     inkscape:pageopacity="0"
     inkscape:pageshadow="2"
     inkscape:window-width="893"
     inkscape:window-height="480"
     id="namedview13"
     showgrid="false"
     inkscape:zoom="0.24711111"
     inkscape:cx="500"
     inkscape:cy="500"
     inkscape:window-x="0"
     inkscape:window-y="0"
     inkscape:window-maximized="0"
     inkscape:current-layer="svg11" />
  <g
     id="g882">
    <path
       style="fill:none;stroke:#000000;stroke-width:50;stroke-linecap:round;stroke-linejoin:round;stroke-miterlimit:4;stroke-opacity:1"
       d="m 409.03572,750.82065 c 0,0 -178.8635,18.922 -178.8635,-72.215 0,-91.1325 176.2465,-71.1715 176.2465,-71.1715 m 281.3785,143.3865 v -250 l 82.0315,-100 -126.9335,-115 -1.485,-38.3085 c 0,0 -229.0705,3.305 -229.0705,265.16 v 238.1485 h 106.375 l -22.6015,-150"
       id="path2" />
    <path
       style="fill:none;stroke:#000000;stroke-width:50;stroke-linecap:round;stroke-linejoin:round;stroke-miterlimit:4;stroke-opacity:1"
       d="m 324.79372,615.02765 c 0,112.254 -1.17,112.254 -1.17,112.254"
       id="path4" />
    <path
       style="fill:#000000;fill-opacity:1;fill-rule:nonzero;stroke:none"
       d="m 578.48495,418.58627 c 0,27.61329 -22.38281,50 -50,50 -27.61328,0 -50,-22.38671 -50,-50 0,-27.61328 22.38672,-50 50,-50 27.61719,0 50,22.38672 50,50 z m 112.5,0 c 0,27.61329 -22.38281,50 -50,50 -27.61328,0 -50,-22.38671 -50,-50 0,-27.61328 22.38672,-50 50,-50 27.61719,0 50,22.38672 50,50 z m 0,0"
       id="path6" />
    <path
       style="fill:none;stroke:#000000;stroke-width:50;stroke-linecap:round;stroke-linejoin:round;stroke-miterlimit:4;stroke-opacity:1"
       d="m 602.02772,600.82065 v 150"
       id="path8" />
  </g>
</svg>
