<?xml version="1.0" encoding="UTF-8"?><svg xmlns="http://www.w3.org/2000/svg" xmlns:xlink="http://www.w3.org/1999/xlink" width="1000px" height="1000px" version="1.1"><g id="surface1"><path style="fill:none;stroke-width:1;stroke-linecap:round;stroke-linejoin:round;stroke:rgb(0%,0%,0%);stroke-opacity:1;stroke-miterlimit:4" d="M188.61099 275C188.61099 275 185.033724 275.378438 185.033724 273.555703 185.033724 271.733047 188.558646 272.132266 188.558646 272.132266M194.186224 275 194.186224 270 195.826849 268 193.288177 265.7 193.25849 264.933828C193.25849 264.933828 188.677083 264.999922 188.677083 270.237031L188.677083 275 190.804583 275 190.352552 272" transform="matrix(50,0,0,50,-9052.916664,-13000)"/><path style="fill:none;stroke-width:1;stroke-linecap:round;stroke-linejoin:round;stroke:rgb(0%,0%,0%);stroke-opacity:1;stroke-miterlimit:4" d="M 186.926146 272.284141 C 186.926146 274.529219 186.902708 274.529219 186.902708 274.529219 " transform="matrix(50,0,0,50,-9052.916664,-13000)"/><path style="stroke:none;fill-rule:nonzero;fill:rgb(0%,0%,0%);fill-opacity:1" d="M547.082031 417.765625C547.082031 445.378906 524.699219 467.765625 497.082031 467.765625 469.46875 467.765625 447.082031 445.378906 447.082031 417.765625 447.082031 390.152344 469.46875 367.765625 497.082031 367.765625 524.699219 367.765625 547.082031 390.152344 547.082031 417.765625zM659.582031 417.765625C659.582031 445.378906 637.199219 467.765625 609.582031 467.765625 581.96875 467.765625 559.582031 445.378906 559.582031 417.765625 559.582031 390.152344 581.96875 367.765625 609.582031 367.765625 637.199219 367.765625 659.582031 390.152344 659.582031 417.765625zM659.582031 417.765625"/><path style="fill:none;stroke-width:1;stroke-linecap:round;stroke-linejoin:round;stroke:rgb(0%,0%,0%);stroke-opacity:1;stroke-miterlimit:4" d="M 192.470833 272 L 192.470833 275 " transform="matrix(50,0,0,50,-9052.916664,-13000)"/></g></svg>