<svg xmlns="http://www.w3.org/2000/svg" width="1000" height="1000"><defs/><path d="M377.633 750S198.77 768.922 198.77 677.785c0-91.133 176.246-71.172 176.246-71.172M656.395 750V500l82.03-100-126.933-115-1.484-38.309s-229.07 3.305-229.07 265.16V750h106.374l-22.601-150M293.39 614.207c0 112.254-1.171 112.254-1.171 112.254" fill="none" stroke-linecap="round" stroke-linejoin="round" stroke="#000" stroke-width="50"/><path d="M547.082 417.766c0 27.613-22.383 50-50 50-27.613 0-50-22.387-50-50 0-27.614 22.387-50 50-50 27.617 0 50 22.386 50 50zm112.5 0c0 27.613-22.383 50-50 50-27.613 0-50-22.387-50-50 0-27.614 22.387-50 50-50 27.617 0 50 22.386 50 50zm0 0"/><path d="M570.625 600v150" fill="none" stroke-linecap="round" stroke-linejoin="round" stroke="#000" stroke-width="50"/></svg>