<?xml version="1.0" encoding="UTF-8"?><svg xmlns="http://www.w3.org/2000/svg" xmlns:xlink="http://www.w3.org/1999/xlink" width="1000px" height="1000px" version="1.1"><g id="surface1"><path style="fill:none;stroke-width:1;stroke-linecap:round;stroke-linejoin:round;stroke:rgb(0%,0%,0%);stroke-opacity:1;stroke-miterlimit:4" d="M9.988047 287.812266 9.988047 284.812266M13.042188 287.811094 14.542188 285.213047M6.933828 287.811094 5.433828 285.213047" transform="matrix(50,0,0,50,0,-14000)"/><path style="fill:none;stroke-width:0.999995;stroke-linecap:round;stroke-linejoin:round;stroke:rgb(0%,0%,0%);stroke-opacity:1;stroke-miterlimit:4" d="M 10.755313 291.675391 C 11.156406 291.476094 11.534609 291.914062 11.581641 292.276953 C 11.671719 292.971953 11.009219 293.493828 10.364063 293.501953 C 9.390703 293.514141 8.69875 292.591875 8.740391 291.668281 C 8.796719 290.418516 9.988984 289.550703 11.19 289.645938 C 12.715938 289.766953 13.761875 291.233516 13.611094 292.711641 C 13.427188 294.513672 11.684375 295.738828 9.929375 295.531406 C 7.851172 295.285703 6.446172 293.265312 6.710938 291.233594 C 6.766563 290.806406 6.891094 290.388828 7.076797 290.000156 " transform="matrix(50,0,0,50,0,-14000)"/></g></svg>