<svg xmlns="http://www.w3.org/2000/svg" width="1000" height="1000"><defs/><path d="M750 250L500 750 250 250h500" fill="none" stroke-linecap="round" stroke-linejoin="round" stroke="#000" stroke-width="50"/><path d="M449.996 512.5c0-27.613 22.387-50 50-50 27.617 0 50 22.387 50 50s-22.383 50-50 50c-27.613 0-50-22.387-50-50zm-75-137.5c0-27.613 22.387-50 50-50 27.617 0 50 22.387 50 50s-22.383 50-50 50c-27.613 0-50-22.387-50-50zm150 0c0-27.613 22.387-50 50-50 27.617 0 50 22.387 50 50s-22.383 50-50 50c-27.613 0-50-22.387-50-50zm0 0"/></svg>