<?xml version="1.0" encoding="UTF-8"?><svg xmlns="http://www.w3.org/2000/svg" xmlns:xlink="http://www.w3.org/1999/xlink" width="1000px" height="1000px" version="1.1"><g id="surface1"><path style="fill:none;stroke-width:1;stroke-linecap:butt;stroke-linejoin:miter;stroke:rgb(0%,0%,0%);stroke-opacity:1;stroke-miterlimit:4" d="M 32.000002 65.8833 C 32.000002 66.987909 31.104533 67.8833 30.000002 67.8833 C 28.895471 67.8833 28.000002 66.987909 28.000002 65.8833 C 28.000002 64.778768 28.895471 63.8833 30.000002 63.8833 C 31.104533 63.8833 32.000002 64.778768 32.000002 65.8833 Z M 32.000002 65.8833 " transform="matrix(-50,0.000000000000006123,-0.000000000000006123,-50,1999.996185,2985.215759)"/><path style="stroke:none;fill-rule:nonzero;fill:rgb(0%,0%,0%);fill-opacity:1" d="M380.890625 489.703125C380.890625 517.320312 358.503906 539.703125 330.890625 539.703125 303.277344 539.703125 280.890625 517.320312 280.890625 489.703125 280.890625 462.089844 303.277344 439.703125 330.890625 439.703125 358.503906 439.703125 380.890625 462.089844 380.890625 489.703125zM514.886719 489.703125C514.886719 517.320312 492.503906 539.703125 464.886719 539.703125 437.273438 539.703125 414.886719 517.320312 414.886719 489.703125 414.886719 462.089844 437.273438 439.703125 464.886719 439.703125 492.503906 439.703125 514.886719 462.089844 514.886719 489.703125zM514.886719 489.703125"/><path style="fill:none;stroke-width:1;stroke-linecap:round;stroke-linejoin:round;stroke:rgb(0%,0%,0%);stroke-opacity:1;stroke-miterlimit:4" d="M 145 294.7 L 153 294.7 C 154 294.7 155 294.7 155 293.188281 C 155 290.258438 151.594375 290.471719 151.594375 290.471719 C 151.594375 286.231328 149.314766 285.425078 147.354219 285.413672 L 145 285.4 " transform="matrix(50,0,0,50,-7000,-14000)"/></g></svg>