<?xml version="1.0" encoding="UTF-8"?><svg xmlns="http://www.w3.org/2000/svg" xmlns:xlink="http://www.w3.org/1999/xlink" width="1000px" height="1000px" version="1.1"><g id="surface1"><path style="stroke:none;fill-rule:nonzero;fill:rgb(0%,0%,0%);fill-opacity:1" d="M 800 246.160156 C 800 273.773438 777.613281 296.160156 750 296.160156 C 722.386719 296.160156 700 273.773438 700 246.160156 C 700 218.546875 722.386719 196.160156 750 196.160156 C 777.613281 196.160156 800 218.546875 800 246.160156 Z M 800 246.160156 "/><path style="fill:none;stroke-width:1;stroke-linecap:round;stroke-linejoin:round;stroke:rgb(0%,0%,0%);stroke-opacity:1;stroke-miterlimit:4" d="M165.523932 295 166.928464 293.380625C166.928464 293.380625 166.886276 294.979844 168.195495 294.937578 169.504714 294.895312 170.026432 291.570078 170.026432 291.570078 170.026432 291.570078 170.472917 294.960234 171.920026 294.960234 173.367135 294.960234 173.13112 290.000156 173.13112 290.000156M175.523932 295 175.523932 287.577109M165.500026 291.691641 173.000026 285.691641 173.000026 287.691641 173.000026 285.691641 171.000026 285.691641" transform="matrix(50,0,0,50,-8026.458335,-14000)"/></g></svg>