<?xml version="1.0" encoding="UTF-8"?><svg xmlns="http://www.w3.org/2000/svg" xmlns:xlink="http://www.w3.org/1999/xlink" width="1000px" height="1000px" version="1.1"><g id="surface1"><path style="fill:none;stroke-width:1;stroke-linecap:round;stroke-linejoin:round;stroke:rgb(0%,0%,0%);stroke-opacity:1;stroke-miterlimit:4" d="M 190.000078 388 C 188.8 388 188 388.974453 188 390.000156 C 188 391.025937 188.916953 392.000078 190.000078 392 C 191.083203 391.999922 192 391.012891 192 390 C 192 388.987031 191.200156 388 190.000078 388 Z M 190.000078 388 " transform="matrix(50,0,0,50,-9000,-19000)"/><path style="fill:none;stroke-width:1;stroke-linecap:round;stroke-linejoin:round;stroke:rgb(0%,0%,0%);stroke-opacity:1;stroke-miterlimit:4" d="M 192.004844 390.000156 C 192.004844 390.000156 192.233359 392 192.930859 392 C 194 392 194 390.000234 194 389.284766 C 194 387.283437 192.280078 385.7 190.000078 385.7 C 187.720078 385.7 186 388.000391 186 390.000156 C 186 392.315703 187.905859 394.3 190.000078 394.3 C 190.747109 394.3 191.359297 394.184219 192.189687 393.704844 " transform="matrix(50,0,0,50,-9000,-19000)"/></g></svg>