<?xml version="1.0" encoding="UTF-8"?><svg xmlns="http://www.w3.org/2000/svg" xmlns:xlink="http://www.w3.org/1999/xlink" width="1000px" height="1000px" version="1.1"><g id="surface1"><path style="fill:none;stroke-width:0.999997;stroke-linecap:round;stroke-linejoin:round;stroke:rgb(0%,0%,0%);stroke-opacity:1;stroke-miterlimit:4" d="M 152.470781 407.939453 C 152.12 407.34 151.501563 406.650547 150.000078 406.650547 C 148.244453 406.650547 147.529141 407.214063 147.529141 408.290781 C 147.529141 410 150.000078 409.969844 150.000078 409.969844 C 150.000078 409.969844 152.470781 410.000156 152.470781 411.64875 C 152.470781 412.615937 151.545234 413.288984 150.000078 413.288984 C 148.766797 413.288984 147.900625 412.643438 147.529141 412 " transform="matrix(50,0,0,50,-7000,-20000)"/><path style="fill:none;stroke-width:1;stroke-linecap:round;stroke-linejoin:round;stroke:rgb(0%,0%,0%);stroke-opacity:1;stroke-miterlimit:4" d="M150.000078 406.565391 150.000078 405M150.000078 414.888672 150.000078 413.323281" transform="matrix(50,0,0,50,-7000,-20000)"/></g></svg>