<?xml version="1.0" encoding="UTF-8"?><svg xmlns="http://www.w3.org/2000/svg" xmlns:xlink="http://www.w3.org/1999/xlink" width="1000px" height="1000px" version="1.1"><g id="surface1"><path style="fill:none;stroke-width:0.264583;stroke-linecap:round;stroke-linejoin:round;stroke:rgb(0%,0%,0%);stroke-opacity:1;stroke-miterlimit:4" d="M 5.529141 429.385703 C 5.653984 427.232969 6.570234 427.369375 6.363828 427.2525 C 6.153437 427.133359 5.77125 426.036172 6.118516 425.336172 C 6.529141 424.607188 7.727734 425.322266 8.334375 425.7 C 8.813906 425.499609 9.893516 425.430781 11.145547 425.7 C 12.328437 425.954297 13.529141 426.690234 13.529141 426.706797 C 13.529141 426.723203 15.030234 426.276875 15.279687 426.789453 C 15.529141 427.302109 14.529141 428.426562 14.529141 428.426562 L 14.529141 431.386641 C 14.529141 432 13.923672 435 13.923672 435 L 5.529141 435 Z M 5.529141 429.385703 " transform="matrix(50,0,0,50,0,-21000)"/><path style="stroke:none;fill-rule:nonzero;fill:rgb(0%,0%,0%);fill-opacity:1" d="M449.792969 453.574219C449.792969 468.644531 440.90625 480.859375 429.949219 480.859375 418.988281 480.859375 410.105469 468.644531 410.105469 453.574219 410.105469 438.507812 418.988281 426.289062 429.949219 426.289062 440.90625 426.289062 449.792969 438.507812 449.792969 453.574219zM642.441406 489.957031C642.441406 504.109375 635.40625 515.585938 626.730469 515.585938 618.054688 515.585938 611.023438 504.109375 611.023438 489.957031 611.023438 475.800781 618.054688 464.324219 626.730469 464.324219 635.40625 464.324219 642.441406 475.800781 642.441406 489.957031zM642.441406 489.957031"/><path style="fill:none;stroke-width:0.264583;stroke-linecap:round;stroke-linejoin:round;stroke:rgb(0%,0%,0%);stroke-opacity:1;stroke-miterlimit:4" d="M9.731719 429.809844C10.239766 429.908984 10.636641 429.410469 10.636641 429.410469 10.636641 429.410469 10.867578 429.818125 11.393594 430.000234M9.322344 427.544375 9.696484 425.521484M10.702109 427.614531 10.8775 425.650156M12.105313 427.977031 12.000078 425.965859M6.311406 429.193125C6.276328 429.187109 5.563047 429.163906 5.563047 429.163906M6.252891 430.035 5.539609 429.988203M6.024922 430.824297 5.563047 430.783359M6.942813 429.362656 7.451484 429.497109M6.907734 430.064219 7.433906 429.83625M13.369766 430.369609 13.659141 430.222891M13.316094 430.770781 13.671641 430.935313M14.014688 430.377891 14.510781 430.443984M14.055 431.163359 14.52625 431.270859M14.089063 431.981953 14.452891 432.031484M14.246797 433.367578C14.246797 433.367578 13.297969 432.104688 12.432656 431.929297 11.567422 431.753906 11.04125 431.835703 11.006172 432.44375 10.971016 433.051797 11.380313 433.858672 11.941562 434.197734 12.502813 434.536875 13.333047 435.004531 13.333047 435.004531M6.293828 432.6075C6.293828 432.227422 6.958047 431.835781 7.697031 431.835781 8.442891 431.835781 10.016172 431.98 10.398125 432.361953 10.733047 432.696953 10.603359 433.360859 10.105781 433.648125 9.607109 433.936094 7.914766 433.659375 7.392969 433.519531 6.902578 433.388125 6.293828 433.242813 6.293828 432.6075zM6.457578 427.216953 8.334375 425.7M13.485078 426.679141C13.595703 427.509375 13.886719 428.151406 14.529141 428.426562" transform="matrix(50,0,0,50,0,-21000)"/></g></svg>