<?xml version="1.0" encoding="UTF-8" standalone="no"?>
<svg
   xmlns:dc="http://purl.org/dc/elements/1.1/"
   xmlns:cc="http://creativecommons.org/ns#"
   xmlns:rdf="http://www.w3.org/1999/02/22-rdf-syntax-ns#"
   xmlns:svg="http://www.w3.org/2000/svg"
   xmlns="http://www.w3.org/2000/svg"
   xmlns:sodipodi="http://sodipodi.sourceforge.net/DTD/sodipodi-0.dtd"
   xmlns:inkscape="http://www.inkscape.org/namespaces/inkscape"
   width="1000px"
   height="1000px"
   version="1.1"
   id="svg9"
   sodipodi:docname="0210-nata.svg"
   inkscape:version="1.0.2-2 (e86c870879, 2021-01-15)">
  <metadata
     id="metadata15">
    <rdf:RDF>
      <cc:Work
         rdf:about="">
        <dc:format>image/svg+xml</dc:format>
        <dc:type
           rdf:resource="http://purl.org/dc/dcmitype/StillImage" />
      </cc:Work>
    </rdf:RDF>
  </metadata>
  <defs
     id="defs13" />
  <sodipodi:namedview
     pagecolor="#ffffff"
     bordercolor="#666666"
     borderopacity="1"
     objecttolerance="10"
     gridtolerance="10"
     guidetolerance="10"
     inkscape:pageopacity="0"
     inkscape:pageshadow="2"
     inkscape:window-width="893"
     inkscape:window-height="480"
     id="namedview11"
     showgrid="false"
     inkscape:zoom="0.24711111"
     inkscape:cx="500"
     inkscape:cy="500"
     inkscape:window-x="0"
     inkscape:window-y="0"
     inkscape:window-maximized="0"
     inkscape:current-layer="svg9" />
  <g
     id="g874">
    <path
       style="fill:none;stroke:#000000;stroke-width:13.2291;stroke-linecap:round;stroke-linejoin:round;stroke-miterlimit:4;stroke-opacity:1"
       d="m 255.21369,468.64159 c 6.24215,-107.6365 52.05465,-100.8165 41.73435,-106.66 -10.51955,-5.957 -29.6289,-60.8165 -12.2656,-95.8165 20.53125,-36.449 80.4609,-0.695 110.79295,18.1915 23.97655,-10.0195 77.95705,-13.461 140.5586,0 59.1445,12.715 119.1797,49.5115 119.1797,50.34 0,0.82 75.05465,-21.496 87.5273,4.135 12.4727,25.633 -37.5273,81.8555 -37.5273,81.8555 v 148.004 c 0,30.6655 -30.27345,180.6655 -30.27345,180.6655 H 255.21369 Z m 0,0"
       id="path2" />
    <path
       style="fill:#000000;fill-opacity:1;fill-rule:nonzero;stroke:none"
       d="m 428.54961,452.93081 c 0,15.07031 -8.88672,27.28515 -19.84375,27.28515 -10.96094,0 -19.84375,-12.21484 -19.84375,-27.28515 0,-15.06641 8.88281,-27.28516 19.84375,-27.28516 10.95703,0 19.84375,12.21875 19.84375,27.28516 z m 192.64844,36.38281 c 0,14.15234 -7.03516,25.62891 -15.71094,25.62891 -8.67578,0 -15.70703,-11.47657 -15.70703,-25.62891 0,-14.15625 7.03125,-25.63281 15.70703,-25.63281 8.67578,0 15.71094,11.47656 15.71094,25.63281 z m 0,0"
       id="path4" />
    <path
       style="fill:none;stroke:#000000;stroke-width:13.2291;stroke-linecap:round;stroke-linejoin:round;stroke-miterlimit:4;stroke-opacity:1"
       d="m 465.34259,489.84859 c 25.40235,4.955 45.2461,-19.9685 45.2461,-19.9685 0,0 11.54685,20.3825 37.84765,29.488 m -103.5625,-122.793 18.707,-101.1445 m 50.28125,104.6525 8.76955,-98.2185 m 61.39065,116.3435 -5.26175,-100.5585 m -284.4336,161.363 c -1.7539,-0.3 -37.41795,-1.46 -37.41795,-1.46 m 34.4922,43.5545 -35.6641,-2.34 m 24.26565,41.805 -23.09375,-2.045 m 68.9883,-71.035 25.43355,6.7225 m -27.1875,28.3555 26.3086,-11.3985 m 296.793,26.668 14.46875,-7.336 m -17.15235,27.3945 17.77735,8.2265 m 17.15235,-27.871 24.80465,3.305 m -22.78905,35.969 23.5625,5.375 m -21.85935,35.5545 18.1914,2.475 m -10.3047,66.805 c 0,0 -47.4414,-63.1445 -90.70705,-71.914 -43.2617,-8.7695 -69.5703,-4.68 -71.3242,25.7225 -1.758,30.4025 18.70705,70.746 46.7695,87.699 28.06255,16.957 69.57425,40.34 69.57425,40.34 m -351.96095,-119.853 c 0,-19.004 33.21095,-38.586 70.16015,-38.586 37.293,0 115.95705,7.211 135.0547,26.3085 16.7461,16.75 10.2617,49.9455 -14.6172,64.3085 -24.9336,14.3985 -109.55075,0.565 -135.6406,-6.4295 -24.51955,-6.5705 -54.95705,-13.836 -54.95705,-45.6015 z m 8.1875,-269.5275 93.83985,-75.8475 m 257.53515,48.957 c 5.53125,41.5115 20.08205,73.6135 52.20315,87.371"
       id="path6" />
  </g>
</svg>
