<?xml version="1.0" encoding="UTF-8"?><svg xmlns="http://www.w3.org/2000/svg" xmlns:xlink="http://www.w3.org/1999/xlink" width="1000px" height="1000px" version="1.1"><g id="surface1"><path style="fill:none;stroke-width:1;stroke-linecap:butt;stroke-linejoin:miter;stroke:rgb(0%,0%,0%);stroke-opacity:1;stroke-miterlimit:4" d="M 52.446406 -429.52375 C 52.446406 -428.143047 51.327109 -427.02375 49.946406 -427.02375 C 48.565703 -427.02375 47.446406 -428.143047 47.446406 -429.52375 C 47.446406 -430.904453 48.565703 -432.02375 49.946406 -432.02375 C 51.327109 -432.02375 52.446406 -430.904453 52.446406 -429.52375 Z M 52.446406 -429.52375 " transform="matrix(50,0,0,-50,-2000,-21000)"/><path style="fill:none;stroke-width:0.999997;stroke-linecap:round;stroke-linejoin:round;stroke:rgb(0%,0%,0%);stroke-opacity:1;stroke-miterlimit:4" d="M 47.433828 429.572891 C 47.447891 428.171953 47.817344 426.604297 48.886094 424.561016 " transform="matrix(50,0,0,50,-2000,-21000)"/><path style="fill:none;stroke-width:1;stroke-linecap:butt;stroke-linejoin:miter;stroke:rgb(0%,0%,0%);stroke-opacity:1;stroke-miterlimit:4" d="M 51.539297 433.613594 C 51.539297 434.442031 50.867734 435.113594 50.039297 435.113594 C 49.210938 435.113594 48.539297 434.442031 48.539297 433.613594 C 48.539297 432.785156 49.210938 432.113594 50.039297 432.113594 C 50.867734 432.113594 51.539297 432.785156 51.539297 433.613594 Z M 51.539297 433.613594 " transform="matrix(50,0,0,50,-2000,-21000)"/></g></svg>