<?xml version="1.0" encoding="UTF-8" standalone="no"?>
<svg
   xmlns:dc="http://purl.org/dc/elements/1.1/"
   xmlns:cc="http://creativecommons.org/ns#"
   xmlns:rdf="http://www.w3.org/1999/02/22-rdf-syntax-ns#"
   xmlns:svg="http://www.w3.org/2000/svg"
   xmlns="http://www.w3.org/2000/svg"
   xmlns:sodipodi="http://sodipodi.sourceforge.net/DTD/sodipodi-0.dtd"
   xmlns:inkscape="http://www.inkscape.org/namespaces/inkscape"
   width="1000px"
   height="1000px"
   version="1.1"
   id="svg9"
   sodipodi:docname="0217-waken.svg"
   inkscape:version="1.0.2-2 (e86c870879, 2021-01-15)">
  <metadata
     id="metadata15">
    <rdf:RDF>
      <cc:Work
         rdf:about="">
        <dc:format>image/svg+xml</dc:format>
        <dc:type
           rdf:resource="http://purl.org/dc/dcmitype/StillImage" />
      </cc:Work>
    </rdf:RDF>
  </metadata>
  <defs
     id="defs13" />
  <sodipodi:namedview
     pagecolor="#ffffff"
     bordercolor="#666666"
     borderopacity="1"
     objecttolerance="10"
     gridtolerance="10"
     guidetolerance="10"
     inkscape:pageopacity="0"
     inkscape:pageshadow="2"
     inkscape:window-width="893"
     inkscape:window-height="480"
     id="namedview11"
     showgrid="false"
     inkscape:zoom="0.24711111"
     inkscape:cx="500"
     inkscape:cy="500"
     inkscape:window-x="0"
     inkscape:window-y="0"
     inkscape:window-maximized="0"
     inkscape:current-layer="svg9" />
  <g
     id="g874">
    <path
       style="fill:none;stroke:#000000;stroke-width:50;stroke-linecap:butt;stroke-linejoin:round;stroke-miterlimit:4;stroke-opacity:1"
       d="m 676.78119,268.51668 c 0,0 -301,-78.055 -353.055,113.273 -19.035,69.973 26.832,128.293 16.082,207.5355 -7.961,58.699 -72.3045,71.9335 -72.3045,71.9335 0,0 94.1915,6.1405 193.5545,0.58 112.7425,-6.301 224.1915,-20.1915 252.1015,-118.8205 33.922,-119.863 -41.625,-139.25 -78.5465,-208.359 -38.7305,-72.4965 42.168,-66.1445 42.168,-66.1445 z m 0,0"
       id="path2" />
    <path
       style="fill:none;stroke:#000000;stroke-width:50;stroke-linecap:round;stroke-linejoin:round;stroke-miterlimit:4;stroke-opacity:1"
       d="m 508.82769,608.41868 c -8.8555,49.055 9.6605,104.758 -47.8475,137.598 24.8045,-5.4805 49.6095,-1.84 74.414,1.23 m 84.25,-108.113 c 20.301,31.375 30.4765,63.34 22.801,94.715 29.2615,-6.504 66.711,-28.801 90.035,-20.465"
       id="path4" />
    <path
       style="fill:#000000;fill-opacity:1;fill-rule:nonzero;stroke:none"
       d="m 587.21069,382.59068 c 0,27.61328 -22.38672,50 -50,50 -27.61328,0 -50,-22.38672 -50,-50 0,-27.61328 22.38672,-50 50,-50 27.61328,0 50,22.38672 50,50 z m 0,0"
       id="path6" />
  </g>
</svg>
