<svg xmlns="http://www.w3.org/2000/svg" width="1000" height="1000"><defs/><path d="M674.57 260.926s-301-78.055-353.054 113.273c-19.036 69.973 26.832 128.293 16.082 207.535-7.961 58.7-72.305 71.934-72.305 71.934s94.191 6.14 193.555.582c112.742-6.3 224.191-20.191 252.101-118.82 33.922-119.864-41.625-139.25-78.547-208.36-38.73-72.496 42.168-66.144 42.168-66.144zm0 0" fill="none" stroke-linejoin="round" stroke="#000" stroke-width="50"/><path d="M506.617 600.828c-8.855 49.055 9.66 104.758-47.847 137.598 24.804-5.48 49.609-1.84 74.414 1.23m84.25-108.113c20.3 31.375 30.476 63.34 22.8 94.715 29.262-6.504 66.711-28.801 90.036-20.465" fill="none" stroke-linecap="round" stroke-linejoin="round" stroke="#000" stroke-width="50"/><path d="M585 375c0 27.613-22.387 50-50 50s-50-22.387-50-50 22.387-50 50-50 50 22.387 50 50zm0 0"/></svg>