<?xml version="1.0" encoding="UTF-8"?><svg xmlns="http://www.w3.org/2000/svg" xmlns:xlink="http://www.w3.org/1999/xlink" width="1000px" height="1000px" version="1.1"><g id="surface1"><path style="fill:none;stroke-width:1;stroke-linecap:butt;stroke-linejoin:round;stroke:rgb(0%,0%,0%);stroke-opacity:1;stroke-miterlimit:4" d="M 153.491406 425.218516 C 153.491406 425.218516 147.471406 423.657422 146.430313 427.483984 C 146.049609 428.883438 146.966953 430.049844 146.751953 431.634687 C 146.592734 432.808672 145.305859 433.073359 145.305859 433.073359 C 145.305859 433.073359 147.189687 433.196172 149.176953 433.085 C 151.431797 432.958984 153.660781 432.681172 154.218984 430.708594 C 154.897422 428.311328 153.386484 427.923594 152.648047 426.541406 C 151.873437 425.091484 153.491406 425.218516 153.491406 425.218516 Z M 153.491406 425.218516 " transform="matrix(50,0,0,50,-7000,-21000)"/><path style="fill:none;stroke-width:1;stroke-linecap:round;stroke-linejoin:round;stroke:rgb(0%,0%,0%);stroke-opacity:1;stroke-miterlimit:4" d="M150.132344 432.016563C149.955234 432.997656 150.325547 434.111719 149.175391 434.768516 149.671484 434.658906 150.167578 434.731719 150.663672 434.793125M152.348672 432.630859C152.754687 433.258359 152.958203 433.897656 152.804688 434.525156 153.389922 434.395078 154.138906 433.949141 154.605391 434.115859" transform="matrix(50,0,0,50,-7000,-21000)"/><path style="stroke:none;fill-rule:nonzero;fill:rgb(0%,0%,0%);fill-opacity:1" d="M 585 375 C 585 402.613281 562.613281 425 535 425 C 507.386719 425 485 402.613281 485 375 C 485 347.386719 507.386719 325 535 325 C 562.613281 325 585 347.386719 585 375 Z M 585 375 "/></g></svg>