<?xml version="1.0" encoding="UTF-8"?><svg xmlns="http://www.w3.org/2000/svg" xmlns:xlink="http://www.w3.org/1999/xlink" width="1000px" height="1000px" version="1.1"><g id="surface1"><path style="fill:none;stroke-width:1;stroke-linecap:butt;stroke-linejoin:miter;stroke:rgb(0%,0%,0%);stroke-opacity:1;stroke-miterlimit:4" d="M 173.711719 432.055781 C 173.711719 434.126875 172.032734 435.805781 169.961719 435.805781 C 167.890625 435.805781 166.211719 434.126875 166.211719 432.055781 C 166.211719 429.984766 167.890625 428.305781 169.961719 428.305781 C 172.032734 428.305781 173.711719 429.984766 173.711719 432.055781 Z M 173.711719 432.055781 " transform="matrix(50,0,0,50,-8000,-21000)"/><path style="fill:none;stroke-width:1;stroke-linecap:round;stroke-linejoin:round;stroke:rgb(0%,0%,0%);stroke-opacity:1;stroke-miterlimit:4" d="M169.961719 426.297813 169.961719 423.297813M173.015938 427.025937 174.515938 424.427813M166.9075 427.025937 165.4075 424.427813M168.25 432.25C168.25 433.216484 169.033516 434 170 434 170.966484 434 171.75 433.216484 171.75 432.25" transform="matrix(50,0,0,50,-8000,-21000)"/></g></svg>