<?xml version="1.0" encoding="UTF-8"?><svg xmlns="http://www.w3.org/2000/svg" xmlns:xlink="http://www.w3.org/1999/xlink" width="1000px" height="1000px" version="1.1"><g id="surface1"><path style="fill:none;stroke-width:1;stroke-linecap:round;stroke-linejoin:round;stroke:rgb(0%,0%,0%);stroke-opacity:1;stroke-miterlimit:4" d="M186.996094 428.86375 184.996094 431.86375 186.996094 428.86375 188.996094 431.86375M192.996094 428.86375 190.996094 431.86375 192.996094 428.86375 194.996094 431.86375M185.525 424.897422C185.525 424.897422 187.025781 428.809141 189.996016 425.839063 193.026016 422.809141 194.467031 426.780781 194.467031 426.780781" transform="matrix(50,0,0,50,-9000,-21000)"/><path style="stroke:none;fill-rule:nonzero;fill:rgb(0%,0%,0%);fill-opacity:1" d="M 550 727.75 C 550 755.363281 527.613281 777.75 500 777.75 C 472.386719 777.75 450 755.363281 450 727.75 C 450 700.136719 472.386719 677.75 500 677.75 C 527.613281 677.75 550 700.136719 550 727.75 Z M 550 727.75 "/></g></svg>