<?xml version="1.0" encoding="UTF-8"?><svg xmlns="http://www.w3.org/2000/svg" xmlns:xlink="http://www.w3.org/1999/xlink" width="1000px" height="1000px" version="1.1"><g id="surface1"><path style="fill:none;stroke-width:1;stroke-linecap:butt;stroke-linejoin:miter;stroke:rgb(0%,0%,0%);stroke-opacity:1;stroke-miterlimit:4" d="M 15.041641 448.89875 C 15.041641 450.279453 13.922344 451.39875 12.541641 451.39875 C 11.160937 451.39875 10.041641 450.279453 10.041641 448.89875 C 10.041641 447.517969 11.160937 446.39875 12.541641 446.39875 C 13.922344 446.39875 15.041641 447.517969 15.041641 448.89875 Z M 15.041641 448.89875 " transform="matrix(50,0,0,50,-1000,-22000)"/><path style="fill:none;stroke-width:1;stroke-linecap:round;stroke-linejoin:miter;stroke:rgb(0%,0%,0%);stroke-opacity:1;stroke-miterlimit:4" d="M 45 454.97 L 47 451.97 " transform="matrix(50,0,0,50,-1000,-22000)"/><path style="fill:none;stroke-width:1;stroke-linecap:round;stroke-linejoin:round;stroke:rgb(0%,0%,0%);stroke-opacity:1;stroke-miterlimit:4" d="M32.063281 448.052344 35.063281 448.052344M30.063281 450.052344 30.063281 453.052344M28.063281 448.052344 25.063281 448.052344" transform="matrix(50,0,0,50,-1000,-22000)"/></g></svg>