<?xml version="1.0" encoding="UTF-8"?><svg xmlns="http://www.w3.org/2000/svg" xmlns:xlink="http://www.w3.org/1999/xlink" width="1000px" height="1000px" version="1.1"><g id="surface1"><path style="fill:none;stroke-width:1;stroke-linecap:butt;stroke-linejoin:miter;stroke:rgb(0%,0%,0%);stroke-opacity:1;stroke-miterlimit:4" d="M 51.539297 433.613594 C 51.539297 434.442031 50.867734 435.113594 50.039297 435.113594 C 49.210938 435.113594 48.539297 434.442031 48.539297 433.613594 C 48.539297 432.785156 49.210938 432.113594 50.039297 432.113594 C 50.867734 432.113594 51.539297 432.785156 51.539297 433.613594 Z M 51.539297 433.613594 " transform="matrix(50,0,0,50,-2000,-22000)"/><path style="fill:none;stroke-width:1;stroke-linecap:round;stroke-linejoin:round;stroke:rgb(0%,0%,0%);stroke-opacity:1;stroke-miterlimit:4" d="M 48 449 C 48 450.104531 48.895469 451 50 451 C 51.104531 451 52 450.104531 52 449 " transform="matrix(50,0,0,50,-2000,-22000)"/><path style="fill:none;stroke-width:1;stroke-linecap:round;stroke-linejoin:round;stroke:rgb(0%,0%,0%);stroke-opacity:1;stroke-miterlimit:4" d="M 54 448.8 C 54 451.009141 52.209141 452.8 50 452.8 C 47.790859 452.8 46 451.009141 46 448.8 C 46 446.590859 47.790859 444.8 50 444.8 C 52.209141 444.8 54 446.590859 54 448.8 Z M 54 448.8 " transform="matrix(50,0,0,50,-2000,-22000)"/><path style="fill:none;stroke-width:1;stroke-linecap:round;stroke-linejoin:miter;stroke:rgb(0%,0%,0%);stroke-opacity:1;stroke-miterlimit:4" d="M45 454.97 47 451.97M55 454.97 53 451.97M65 455 67 452" transform="matrix(50,0,0,50,-2000,-22000)"/></g></svg>