<?xml version="1.0" encoding="UTF-8"?><svg xmlns="http://www.w3.org/2000/svg" xmlns:xlink="http://www.w3.org/1999/xlink" width="1000px" height="1000px" version="1.1"><g id="surface1"><path style="fill:none;stroke-width:1;stroke-linecap:round;stroke-linejoin:miter;stroke:rgb(0%,0%,0%);stroke-opacity:1;stroke-miterlimit:4" d="M 55 454.97 L 53 451.97 " transform="matrix(50,0,0,50,-3000,-22000)"/><path style="fill:none;stroke-width:1;stroke-linecap:round;stroke-linejoin:round;stroke:rgb(0%,0%,0%);stroke-opacity:1;stroke-miterlimit:4" d="M 72 450.33 C 72 449.225469 71.104531 448.33 70 448.33 C 68.895469 448.33 68 449.225469 68 450.33 " transform="matrix(50,0,0,50,-3000,-22000)"/><path style="fill:none;stroke-width:1;stroke-linecap:round;stroke-linejoin:round;stroke:rgb(0%,0%,0%);stroke-opacity:1;stroke-miterlimit:4" d="M 74 448.83 C 74 451.039141 72.209141 452.83 70 452.83 C 67.790859 452.83 66 451.039141 66 448.83 C 66 446.620859 67.790859 444.83 70 444.83 C 72.209141 444.83 74 446.620859 74 448.83 Z M 74 448.83 " transform="matrix(50,0,0,50,-3000,-22000)"/><path style="fill:none;stroke-width:1;stroke-linecap:round;stroke-linejoin:miter;stroke:rgb(0%,0%,0%);stroke-opacity:1;stroke-miterlimit:4" d="M65 455 67 452M75 455 73 452" transform="matrix(50,0,0,50,-3000,-22000)"/></g></svg>