<svg xmlns="http://www.w3.org/2000/svg" width="1000" height="1000"><defs/><path d="M400 540.461c0 55.227 44.773 100 100 100 55.23 0 100-44.773 100-100" fill="none" stroke-linecap="round" stroke-linejoin="round" stroke="#000" stroke-width="50"/><path d="M250 250h500v500H250zm0 0" fill="none" stroke-linecap="round" stroke-linejoin="round" stroke="#000" stroke-width="50"/><path d="M551.223 400c0 27.613-22.387 50-50 50-27.614 0-50-22.387-50-50s22.386-50 50-50c27.613 0 50 22.387 50 50zM423.7 400c0 27.613-22.387 50-50 50-27.614 0-50-22.387-50-50s22.386-50 50-50c27.613 0 50 22.387 50 50zm260 0c0 27.613-22.388 50-50 50-27.614 0-50-22.387-50-50s22.386-50 50-50c27.612 0 50 22.387 50 50zm0 0"/></svg>