<svg xmlns="http://www.w3.org/2000/svg" width="1000" height="1000"><defs/><path d="M252.746 250h500v500h-500zm0 0" fill="none" stroke-linecap="round" stroke-linejoin="round" stroke="#000" stroke-width="50"/><path d="M553.969 347.082c0 27.613-22.387 50-50 50-27.614 0-50-22.387-50-50s22.386-50 50-50c27.613 0 50 22.387 50 50zm-127.524 0c0 27.613-22.386 50-50 50-27.613 0-50-22.387-50-50s22.387-50 50-50c27.614 0 50 22.387 50 50zm260 0c0 27.613-22.386 50-50 50-27.613 0-50-22.387-50-50s22.387-50 50-50c27.614 0 50 22.387 50 50zm0 0"/><path d="M326.332 447.348H679.16v230.457H326.332zm0 0" fill="none" stroke-linecap="round" stroke-linejoin="round" stroke="#000" stroke-width="50"/><path d="M487.5 565c0 27.613-22.387 50-50 50s-50-22.387-50-50 22.387-50 50-50 50 22.387 50 50zm125 0c0 27.613-22.387 50-50 50s-50-22.387-50-50 22.387-50 50-50 50 22.387 50 50zm0 0"/></svg>