<?xml version="1.0" encoding="UTF-8"?><svg xmlns="http://www.w3.org/2000/svg" xmlns:xlink="http://www.w3.org/1999/xlink" width="1000px" height="1000px" version="1.1"><g id="surface1"><path style="fill:none;stroke-width:1;stroke-linecap:butt;stroke-linejoin:miter;stroke:rgb(0%,0%,0%);stroke-opacity:1;stroke-miterlimit:4" d="M 173.711719 432.055781 C 173.711719 434.126875 172.032734 435.805781 169.961719 435.805781 C 167.890625 435.805781 166.211719 434.126875 166.211719 432.055781 C 166.211719 429.984766 167.890625 428.305781 169.961719 428.305781 C 172.032734 428.305781 173.711719 429.984766 173.711719 432.055781 Z M 173.711719 432.055781 " transform="matrix(50,0,0,50,-8000,-22000)"/><path style="fill:none;stroke-width:1;stroke-linecap:round;stroke-linejoin:round;stroke:rgb(0%,0%,0%);stroke-opacity:1;stroke-miterlimit:4" d="M 106 165 L 114 165 L 114 175 L 106 175 Z M 106 165 " transform="matrix(50,0,0,50,-5000,-8000)"/><path style="fill:none;stroke-width:1;stroke-linecap:round;stroke-linejoin:round;stroke:rgb(0%,0%,0%);stroke-opacity:1;stroke-miterlimit:4" d="M174 445 168.721484 448 169.470937 455M168.721484 448 174 450.000234" transform="matrix(50,0,0,50,-8000,-22000)"/><path style="stroke:none;fill-rule:nonzero;fill:rgb(0%,0%,0%);fill-opacity:1" d="M 622.085938 590.882812 C 622.085938 614.640625 602.847656 633.898438 579.117188 633.898438 C 555.386719 633.898438 536.148438 614.640625 536.148438 590.882812 C 536.148438 567.128906 555.386719 547.871094 579.117188 547.871094 C 602.847656 547.871094 622.085938 567.128906 622.085938 590.882812 Z M 622.085938 590.882812 "/></g></svg>