<?xml version="1.0" encoding="UTF-8"?><svg xmlns="http://www.w3.org/2000/svg" xmlns:xlink="http://www.w3.org/1999/xlink" width="1000px" height="1000px" version="1.1"><g id="surface1"><path style="stroke:none;fill-rule:nonzero;fill:rgb(0%,0%,0%);fill-opacity:1" d="M388.28125 598.988281C388.28125 623.960938 368.039062 644.203125 343.066406 644.203125 318.09375 644.203125 297.851562 623.960938 297.851562 598.988281 297.851562 574.019531 318.09375 553.773438 343.066406 553.773438 368.039062 553.773438 388.28125 574.019531 388.28125 598.988281zM700.976562 598.988281C700.976562 623.960938 680.734375 644.203125 655.761719 644.203125 630.792969 644.203125 610.546875 623.960938 610.546875 598.988281 610.546875 574.019531 630.792969 553.773438 655.761719 553.773438 680.734375 553.773438 700.976562 574.019531 700.976562 598.988281zM700.976562 598.988281"/><path style="fill:none;stroke-width:0.999996;stroke-linecap:round;stroke-linejoin:round;stroke:rgb(0%,0%,0%);stroke-opacity:1;stroke-miterlimit:4" d="M 185 452.114844 C 185 449.925625 186.867344 450.004687 187.453594 450.004687 C 187.453594 449.236719 188.911641 447.698906 191.012578 447.698906 C 193.113594 447.698906 195 448.552109 195 452.051406 " transform="matrix(50,0,0,50,-9000,-22000)"/><path style="fill:none;stroke-width:0.999996;stroke-linecap:round;stroke-linejoin:round;stroke:rgb(0%,0%,0%);stroke-opacity:1;stroke-miterlimit:4" d="M191.012578 447.698906 191.012578 450 187.453594 450.005M188.866875 452.033437 191.122109 452.033437" transform="matrix(50,0,0,50,-9000,-22000)"/></g></svg>