<?xml version="1.0" encoding="UTF-8" standalone="no"?>
<svg
   xmlns:dc="http://purl.org/dc/elements/1.1/"
   xmlns:cc="http://creativecommons.org/ns#"
   xmlns:rdf="http://www.w3.org/1999/02/22-rdf-syntax-ns#"
   xmlns:svg="http://www.w3.org/2000/svg"
   xmlns="http://www.w3.org/2000/svg"
   xmlns:sodipodi="http://sodipodi.sourceforge.net/DTD/sodipodi-0.dtd"
   xmlns:inkscape="http://www.inkscape.org/namespaces/inkscape"
   width="1000px"
   height="1000px"
   version="1.1"
   id="svg9"
   sodipodi:docname="0229-Pingo.svg"
   inkscape:version="1.0.2-2 (e86c870879, 2021-01-15)">
  <metadata
     id="metadata15">
    <rdf:RDF>
      <cc:Work
         rdf:about="">
        <dc:format>image/svg+xml</dc:format>
        <dc:type
           rdf:resource="http://purl.org/dc/dcmitype/StillImage" />
      </cc:Work>
    </rdf:RDF>
  </metadata>
  <defs
     id="defs13" />
  <sodipodi:namedview
     pagecolor="#ffffff"
     bordercolor="#666666"
     borderopacity="1"
     objecttolerance="10"
     gridtolerance="10"
     guidetolerance="10"
     inkscape:pageopacity="0"
     inkscape:pageshadow="2"
     inkscape:window-width="893"
     inkscape:window-height="480"
     id="namedview11"
     showgrid="false"
     inkscape:zoom="0.24711111"
     inkscape:cx="500"
     inkscape:cy="500"
     inkscape:window-x="0"
     inkscape:window-y="0"
     inkscape:window-maximized="0"
     inkscape:current-layer="svg9" />
  <g
     id="g874">
    <path
       style="fill:#000000;fill-opacity:1;fill-rule:nonzero;stroke:none"
       d="m 388.28125,596.91392 c 0,24.97266 -20.24219,45.21484 -45.21484,45.21484 -24.97266,0 -45.21485,-20.24218 -45.21485,-45.21484 0,-24.96875 20.24219,-45.21484 45.21485,-45.21484 24.97265,0 45.21484,20.24609 45.21484,45.21484 z m 312.69531,0 c 0,24.97266 -20.24219,45.21484 -45.21484,45.21484 -24.96875,0 -45.21485,-20.24218 -45.21485,-45.21484 0,-24.96875 20.2461,-45.21484 45.21485,-45.21484 24.97265,0 45.21484,20.24609 45.21484,45.21484 z m 0,0"
       id="path2" />
    <path
       style="fill:none;stroke:#000000;stroke-width:49.9998;stroke-linecap:round;stroke-linejoin:round;stroke-miterlimit:4;stroke-opacity:1"
       d="m 250,603.66764 c 0,-109.4605 93.367,-105.5075 122.6795,-105.5075 0,-38.3985 72.9025,-115.289 177.9495,-115.289 105.0505,0 199.371,42.66 199.371,217.625"
       id="path4" />
    <path
       style="fill:none;stroke:#000000;stroke-width:49.9998;stroke-linecap:round;stroke-linejoin:round;stroke-miterlimit:4;stroke-opacity:1"
       d="m 550.629,382.87114 v 115.0545 l -177.9495,0.25 m 70.664,101.422 h 112.762"
       id="path6" />
  </g>
</svg>
