<?xml version="1.0" encoding="UTF-8"?><svg xmlns="http://www.w3.org/2000/svg" xmlns:xlink="http://www.w3.org/1999/xlink" width="1000px" height="1000px" version="1.1"><g id="surface1"><path style="fill:none;stroke-width:1;stroke-linecap:round;stroke-linejoin:round;stroke:rgb(0%,0%,0%);stroke-opacity:1;stroke-miterlimit:4" d="M7.613984 475.990547C7.613984 475.990547 4.036797 476.368984 4.036797 474.54625 4.036797 472.723594 7.561719 473.122813 7.561719 473.122813M14.247578 475.990547 14.247578 470.990547 15.888203 468.990547 13.349531 466.690547 13.319844 465.924375C13.319844 465.924375 7.680156 465.990469 7.680156 471.227578L7.680156 475.990547 9.807656 475.990547" transform="matrix(50,0,0,50,0,-23000)"/><path style="fill:none;stroke-width:1;stroke-linecap:round;stroke-linejoin:round;stroke:rgb(0%,0%,0%);stroke-opacity:1;stroke-miterlimit:4" d="M 5.929141 473.274688 C 5.929141 475.519766 5.905781 475.519766 5.905781 475.519766 " transform="matrix(50,0,0,50,0,-23000)"/><path style="stroke:none;fill-rule:nonzero;fill:rgb(0%,0%,0%);fill-opacity:1" d="M571.648438 467.292969C571.648438 494.90625 549.261719 517.292969 521.648438 517.292969 494.035156 517.292969 471.648438 494.90625 471.648438 467.292969 471.648438 439.679688 494.035156 417.292969 521.648438 417.292969 549.261719 417.292969 571.648438 439.679688 571.648438 467.292969zM694.070312 467.292969C694.070312 494.90625 671.683594 517.292969 644.070312 517.292969 616.457031 517.292969 594.070312 494.90625 594.070312 467.292969 594.070312 439.679688 616.457031 417.292969 644.070312 417.292969 671.683594 417.292969 694.070312 439.679688 694.070312 467.292969zM694.070312 467.292969"/><path style="fill:none;stroke-width:0.7;stroke-linecap:round;stroke-linejoin:round;stroke:rgb(0%,0%,0%);stroke-opacity:1;stroke-miterlimit:4" d="M 9.767734 475.940547 L 9.767734 471.473047 L 13.63625 473.706797 Z M 9.767734 475.940547 " transform="matrix(50,0,0,50,0,-23000)"/><path style="fill:none;stroke-width:0.7;stroke-linecap:round;stroke-linejoin:round;stroke:rgb(0%,0%,0%);stroke-opacity:1;stroke-miterlimit:4" d="M 8.446094 473.706797 L 12.314609 471.473047 L 12.314609 475.940547 Z M 8.446094 473.706797 " transform="matrix(50,0,0,50,0,-23000)"/><path style="fill:none;stroke-width:1;stroke-linecap:round;stroke-linejoin:round;stroke:rgb(0%,0%,0%);stroke-opacity:1;stroke-miterlimit:4" d="M 7.511094 465.931562 C 7.511094 466.432187 8.668437 467.269922 11.578437 467.269922 C 14.488359 467.269922 15.645625 466.439219 15.645625 465.931406 C 15.645625 465.423594 14.488437 464.592812 11.578437 464.592812 C 8.668437 464.592812 7.511094 465.430938 7.511094 465.931562 Z M 7.511094 465.931562 " transform="matrix(50,0,0,50,0,-23000)"/></g></svg>