<?xml version="1.0" encoding="UTF-8" standalone="no"?>
<svg
   xmlns:dc="http://purl.org/dc/elements/1.1/"
   xmlns:cc="http://creativecommons.org/ns#"
   xmlns:rdf="http://www.w3.org/1999/02/22-rdf-syntax-ns#"
   xmlns:svg="http://www.w3.org/2000/svg"
   xmlns="http://www.w3.org/2000/svg"
   xmlns:sodipodi="http://sodipodi.sourceforge.net/DTD/sodipodi-0.dtd"
   xmlns:inkscape="http://www.inkscape.org/namespaces/inkscape"
   width="1000px"
   height="1000px"
   version="1.1"
   id="svg15"
   sodipodi:docname="0230-lipamanka.svg"
   inkscape:version="1.0.2-2 (e86c870879, 2021-01-15)">
  <metadata
     id="metadata21">
    <rdf:RDF>
      <cc:Work
         rdf:about="">
        <dc:format>image/svg+xml</dc:format>
        <dc:type
           rdf:resource="http://purl.org/dc/dcmitype/StillImage" />
      </cc:Work>
    </rdf:RDF>
  </metadata>
  <defs
     id="defs19" />
  <sodipodi:namedview
     pagecolor="#ffffff"
     bordercolor="#666666"
     borderopacity="1"
     objecttolerance="10"
     gridtolerance="10"
     guidetolerance="10"
     inkscape:pageopacity="0"
     inkscape:pageshadow="2"
     inkscape:window-width="893"
     inkscape:window-height="480"
     id="namedview17"
     showgrid="false"
     inkscape:zoom="0.24711111"
     inkscape:cx="500"
     inkscape:cy="500"
     inkscape:window-x="0"
     inkscape:window-y="0"
     inkscape:window-maximized="0"
     inkscape:current-layer="svg15" />
  <g
     id="g898">
    <path
       style="fill:none;stroke:#000000;stroke-width:50;stroke-linecap:round;stroke-linejoin:round;stroke-miterlimit:4;stroke-opacity:1"
       d="m 382.57467,784.10996 c 0,0 -178.85935,18.9215 -178.85935,-72.215 0,-91.133 176.2461,-71.172 176.2461,-71.172 m 334.29295,143.387 v -250 l 82.03125,-100 -126.9336,-115 -1.4845,-38.309 c 0,0 -281.9844,3.305 -281.9844,265.1605 v 238.1485 h 106.375"
       id="path2" />
    <path
       style="fill:none;stroke:#000000;stroke-width:50;stroke-linecap:round;stroke-linejoin:round;stroke-miterlimit:4;stroke-opacity:1"
       d="m 298.33252,648.31696 c 0,112.254 -1.168,112.254 -1.168,112.254"
       id="path4" />
    <path
       style="fill:#000000;fill-opacity:1;fill-rule:nonzero;stroke:none"
       d="m 573.52391,451.87543 c 0,27.61328 -22.38672,50 -50,50 -27.61328,0 -50,-22.38672 -50,-50 0,-27.61328 22.38672,-50 50,-50 27.61328,0 50,22.38672 50,50 z m 122.42187,0 c 0,27.61328 -22.38672,50 -50,50 -27.61328,0 -50,-22.38672 -50,-50 0,-27.61328 22.38672,-50 50,-50 27.61328,0 50,22.38672 50,50 z m 0,0"
       id="path6" />
    <path
       style="fill:none;stroke:#000000;stroke-width:35;stroke-linecap:round;stroke-linejoin:round;stroke-miterlimit:4;stroke-opacity:1"
       d="m 490.26217,781.60996 v -223.375 l 193.4258,111.6875 z m 0,0"
       id="path8" />
    <path
       style="fill:none;stroke:#000000;stroke-width:35;stroke-linecap:round;stroke-linejoin:round;stroke-miterlimit:4;stroke-opacity:1"
       d="m 424.18017,669.92246 193.42575,-111.6875 v 223.375 z m 0,0"
       id="path10" />
    <path
       style="fill:none;stroke:#000000;stroke-width:50;stroke-linecap:round;stroke-linejoin:round;stroke-miterlimit:4;stroke-opacity:1"
       d="m 377.43017,281.16046 c 0,25.0315 57.86715,66.918 203.36715,66.918 145.4961,0 203.3594,-41.535 203.3594,-66.9255 0,-25.391 -57.8594,-66.93 -203.3594,-66.93 -145.5,0 -203.36715,41.9065 -203.36715,66.9375 z m 0,0"
       id="path12" />
  </g>
</svg>
