<?xml version="1.0" encoding="UTF-8"?><svg xmlns="http://www.w3.org/2000/svg" xmlns:xlink="http://www.w3.org/1999/xlink" width="1000px" height="1000px" version="1.1"><g id="surface1"><path style="stroke:none;fill-rule:nonzero;fill:rgb(0%,0%,0%);fill-opacity:1" d="M 624.519531 390.707031 C 634.980469 400.515625 636.625 415.835938 628.1875 424.929688 C 619.753906 434.019531 604.4375 433.4375 593.976562 423.628906 C 583.515625 413.820312 581.871094 398.496094 590.304688 389.40625 C 598.742188 380.316406 614.058594 380.898438 624.519531 390.707031 Z M 624.519531 390.707031 "/><path style="fill:none;stroke-width:0.5;stroke-linecap:round;stroke-linejoin:round;stroke:rgb(0%,0%,0%);stroke-opacity:1;stroke-miterlimit:4" d="M 155 470 C 155 472.761406 152.761406 475 150 475 C 147.238594 475 145 472.761406 145 470 C 145 467.238594 147.238594 465 150 465 C 152.761406 465 155 467.238594 155 470 Z M 155 470 " transform="matrix(50,0,0,50,-7000,-23000)"/><path style="fill:none;stroke-width:0.5;stroke-linecap:round;stroke-linejoin:round;stroke:rgb(0%,0%,0%);stroke-opacity:1;stroke-miterlimit:4" d="M146.380703 469.576094 148.414688 469.576094C148.9525 468.732578 148.301875 467.485703 147.389453 467.485703 146.477031 467.485703 145.82375 468.692891 146.380703 469.576094zM150.295703 469.569297 152.825781 469.569297C153.21 468.233047 152.325859 467.486094 151.543281 467.486094 150.760625 467.486094 149.865469 468.356328 150.295703 469.569297zM150.295703 469.569297" transform="matrix(50,0,0,50,-7000,-23000)"/><path style="stroke:none;fill-rule:nonzero;fill:rgb(0%,0%,0%);fill-opacity:1" d="M 412.132812 391 C 422.59375 400.808594 424.234375 416.128906 415.800781 425.222656 C 407.367188 434.3125 392.046875 433.730469 381.585938 423.921875 C 371.125 414.113281 369.484375 398.789062 377.917969 389.699219 C 386.351562 380.609375 401.671875 381.191406 412.132812 391 Z M 412.132812 391 "/><path style="fill:none;stroke-width:0.5;stroke-linecap:round;stroke-linejoin:round;stroke:rgb(0%,0%,0%);stroke-opacity:1;stroke-miterlimit:4" d="M 146.479922 470.700078 L 152.732266 470.700078 C 153.394531 473.225625 150.952266 473.948516 149.924062 473.948516 C 147.831953 473.948516 146.842422 471.800078 146.842422 470.705469 " transform="matrix(50,0,0,50,-7000,-23000)"/><path style="fill:none;stroke-width:0.5;stroke-linecap:butt;stroke-linejoin:miter;stroke:rgb(0%,0%,0%);stroke-opacity:1;stroke-miterlimit:4" d="M 148.869453 473.715781 C 148.750781 473.111875 149.536406 472.521094 150.002187 472.335 C 150.954375 471.954531 151.885391 472.613047 152.218125 473.046016 " transform="matrix(50,0,0,50,-7000,-23000)"/></g></svg>