<?xml version="1.0" encoding="UTF-8" standalone="no"?>
<svg
   xmlns:dc="http://purl.org/dc/elements/1.1/"
   xmlns:cc="http://creativecommons.org/ns#"
   xmlns:rdf="http://www.w3.org/1999/02/22-rdf-syntax-ns#"
   xmlns:svg="http://www.w3.org/2000/svg"
   xmlns="http://www.w3.org/2000/svg"
   xmlns:sodipodi="http://sodipodi.sourceforge.net/DTD/sodipodi-0.dtd"
   xmlns:inkscape="http://www.inkscape.org/namespaces/inkscape"
   width="1000px"
   height="1000px"
   version="1.1"
   id="svg15"
   sodipodi:docname="0237-epiku.svg"
   inkscape:version="1.0.2-2 (e86c870879, 2021-01-15)">
  <metadata
     id="metadata21">
    <rdf:RDF>
      <cc:Work
         rdf:about="">
        <dc:format>image/svg+xml</dc:format>
        <dc:type
           rdf:resource="http://purl.org/dc/dcmitype/StillImage" />
      </cc:Work>
    </rdf:RDF>
  </metadata>
  <defs
     id="defs19" />
  <sodipodi:namedview
     pagecolor="#ffffff"
     bordercolor="#666666"
     borderopacity="1"
     objecttolerance="10"
     gridtolerance="10"
     guidetolerance="10"
     inkscape:pageopacity="0"
     inkscape:pageshadow="2"
     inkscape:window-width="893"
     inkscape:window-height="480"
     id="namedview17"
     showgrid="false"
     inkscape:zoom="0.24711111"
     inkscape:cx="500"
     inkscape:cy="500"
     inkscape:window-x="0"
     inkscape:window-y="0"
     inkscape:window-maximized="0"
     inkscape:current-layer="svg15" />
  <g
     id="g898">
    <path
       style="fill:#000000;fill-opacity:1;fill-rule:nonzero;stroke:none"
       d="m 624.51953,390.70703 c 10.46094,9.80859 12.10547,25.12891 3.66797,34.22266 -8.43359,9.08984 -23.75,8.50781 -34.21094,-1.30078 -10.46094,-9.8086 -12.10547,-25.13282 -3.67187,-34.22266 8.4375,-9.08984 23.7539,-8.50781 34.21484,1.30078 z m 0,0"
       id="path2" />
    <path
       style="fill:none;stroke:#000000;stroke-width:25;stroke-linecap:round;stroke-linejoin:round;stroke-miterlimit:4;stroke-opacity:1"
       d="M 750,500 C 750,638.0705 638.0705,750 500,750 361.9295,750 250,638.0705 250,500 250,361.9295 361.9295,250 500,250 c 138.0705,0 250,111.9295 250,250 z m 0,0"
       id="path4" />
    <path
       style="fill:none;stroke:#000000;stroke-width:25;stroke-linecap:round;stroke-linejoin:round;stroke-miterlimit:4;stroke-opacity:1"
       d="m 319.035,478.8045 h 101.6995 c 26.8905,-42.1755 -5.641,-104.5195 -51.262,-104.5195 -45.621,0 -78.285,60.3595 -50.4375,104.5195 z m 195.75,-0.35 H 641.289 C 660.5,411.642 616.293,374.294 577.164,374.294 c -39.133,0 -83.8905,43.512 -62.379,104.1605 z m 0,0"
       id="path6" />
    <path
       style="fill:#000000;fill-opacity:1;fill-rule:nonzero;stroke:none"
       d="m 412.13281,391 c 10.46094,9.80859 12.10156,25.12891 3.66797,34.22266 -8.43359,9.08984 -23.75391,8.50781 -34.21484,-1.30079 -10.46094,-9.80859 -12.10157,-25.13281 -3.66797,-34.22265 8.43359,-9.08985 23.7539,-8.50781 34.21484,1.30078 z m 0,0"
       id="path8" />
    <path
       style="fill:none;stroke:#000000;stroke-width:25;stroke-linecap:round;stroke-linejoin:round;stroke-miterlimit:4;stroke-opacity:1"
       d="m 323.996,535.004 h 312.6175 c 33.113,126.277 -89,162.422 -140.4105,162.422 -104.6055,0 -154.082,-107.422 -154.082,-162.1525"
       id="path10" />
    <path
       style="fill:none;stroke:#000000;stroke-width:25;stroke-linecap:butt;stroke-linejoin:miter;stroke-miterlimit:4;stroke-opacity:1"
       d="m 443.4725,685.789 c -5.9335,-30.1955 33.348,-59.7345 56.637,-69.039 47.609,-19.0235 94.16,13.9025 110.7965,35.551"
       id="path12" />
  </g>
</svg>
