<?xml version="1.0" encoding="UTF-8"?><svg xmlns="http://www.w3.org/2000/svg" xmlns:xlink="http://www.w3.org/1999/xlink" width="1000px" height="1000px" version="1.1"><g id="surface1"><path style="fill:none;stroke-width:1;stroke-linecap:round;stroke-linejoin:round;stroke:rgb(0%,0%,0%);stroke-opacity:1;stroke-miterlimit:4" d="M 170.000078 463.833594 L 170.000078 470.000234 " transform="matrix(50,0,0,50,-8000,-23000)"/><path style="fill:none;stroke-width:0.999995;stroke-linecap:round;stroke-linejoin:round;stroke:rgb(0%,0%,0%);stroke-opacity:1;stroke-miterlimit:4" d="M 167.926016 471.753125 L 167.926016 475.692422 C 167.926016 471.753125 169.453281 471.753125 170.000078 471.753125 C 170.935547 471.753047 172.073984 471.753125 172.073984 475.692187 " transform="matrix(50,0,0,50,-8000,-23000)"/><path style="fill:none;stroke-width:0.999996;stroke-linecap:butt;stroke-linejoin:miter;stroke:rgb(0%,0%,0%);stroke-opacity:1;stroke-miterlimit:4" d="M 187.522266 470.003203 C 187.522266 470.573125 187.058984 471.035156 186.487422 471.035156 C 185.915859 471.035156 185.452578 470.573125 185.452578 470.003203 C 185.452578 469.433281 185.915859 468.97125 186.487422 468.97125 C 187.058984 468.97125 187.522266 469.433281 187.522266 470.003203 Z M 187.522266 470.003203 " transform="matrix(50,0,0,50,-8000,-23000)"/></g></svg>