<?xml version="1.0" encoding="UTF-8" standalone="no"?>
<svg
   xmlns:dc="http://purl.org/dc/elements/1.1/"
   xmlns:cc="http://creativecommons.org/ns#"
   xmlns:rdf="http://www.w3.org/1999/02/22-rdf-syntax-ns#"
   xmlns:svg="http://www.w3.org/2000/svg"
   xmlns="http://www.w3.org/2000/svg"
   xmlns:sodipodi="http://sodipodi.sourceforge.net/DTD/sodipodi-0.dtd"
   xmlns:inkscape="http://www.inkscape.org/namespaces/inkscape"
   width="1000px"
   height="1000px"
   version="1.1"
   id="svg9"
   sodipodi:docname="0239-likujo.svg"
   inkscape:version="1.0.2-2 (e86c870879, 2021-01-15)">
  <metadata
     id="metadata15">
    <rdf:RDF>
      <cc:Work
         rdf:about="">
        <dc:format>image/svg+xml</dc:format>
        <dc:type
           rdf:resource="http://purl.org/dc/dcmitype/StillImage" />
      </cc:Work>
    </rdf:RDF>
  </metadata>
  <defs
     id="defs13" />
  <sodipodi:namedview
     pagecolor="#ffffff"
     bordercolor="#666666"
     borderopacity="1"
     objecttolerance="10"
     gridtolerance="10"
     guidetolerance="10"
     inkscape:pageopacity="0"
     inkscape:pageshadow="2"
     inkscape:window-width="893"
     inkscape:window-height="480"
     id="namedview11"
     showgrid="false"
     inkscape:zoom="0.24711111"
     inkscape:cx="500"
     inkscape:cy="500"
     inkscape:window-x="0"
     inkscape:window-y="0"
     inkscape:window-maximized="0"
     inkscape:current-layer="svg9" />
  <g
     id="g874">
    <path
       style="fill:none;stroke:#000000;stroke-width:49.9998;stroke-linecap:butt;stroke-linejoin:miter;stroke-miterlimit:4;stroke-opacity:1"
       d="m 514.95101,500.485 c 0,28.496 -23.168,51.5975 -51.742,51.5975 -28.5785,0 -51.746,-23.1015 -51.746,-51.5975 0,-28.4965 23.1675,-51.598 51.746,-51.598 28.574,0 51.742,23.1015 51.742,51.598 z m -84.625,154.0895 c 0,28.496 -23.164,51.598 -51.742,51.598 -28.5785,0 -51.7425,-23.102 -51.7425,-51.598 0,-28.5 23.164,-51.5975 51.7425,-51.5975 28.578,0 51.742,23.0975 51.742,51.5975 z m 169.246,0 c 0,28.496 -23.168,51.598 -51.746,51.598 -28.57399,0 -51.74199,-23.102 -51.74199,-51.598 0,-28.5 23.168,-51.5975 51.74199,-51.5975 28.578,0 51.746,23.0975 51.746,51.5975 z m 0,0"
       id="path2" />
    <path
       style="fill:#000000;fill-opacity:1;fill-rule:nonzero;stroke:none"
       d="m 788.39638,439.13716 c -0.008,2.04296 -0.0742,4.08593 -0.20312,6.125"
       id="path4" />
    <path
       style="fill:none;stroke:#000000;stroke-width:49.9998;stroke-linecap:butt;stroke-linejoin:miter;stroke-miterlimit:4;stroke-opacity:1"
       d="m 691.27901,499.7975 c 0,28.496 -23.164,51.5975 -51.742,51.5975 -28.57799,0 -51.74199,-23.1015 -51.74199,-51.5975 0,-28.4965 23.164,-51.598 51.74199,-51.598 28.578,0 51.742,23.1015 51.742,51.598 z m -351.191,0.35 c 0,28.496 -23.1645,51.598 -51.7425,51.598 -28.578,0 -51.742,-23.102 -51.742,-51.598 0,-28.496 23.164,-51.5975 51.742,-51.5975 28.578,0 51.7425,23.1015 51.7425,51.5975 z m 90.7185,-154.7225 c 0,28.496 -23.164,51.5975 -51.742,51.5975 -28.5785,0 -51.7425,-23.1015 -51.7425,-51.5975 0,-28.496 23.164,-51.5975 51.7425,-51.5975 28.578,0 51.742,23.1015 51.742,51.5975 z m 169.246,0 c 0,28.496 -23.168,51.5975 -51.742,51.5975 -28.57799,0 -51.74599,-23.1015 -51.74599,-51.5975 0,-28.496 23.168,-51.5975 51.74599,-51.5975 28.574,0 51.742,23.1015 51.742,51.5975 z m 0,0"
       id="path6" />
  </g>
</svg>
