<?xml version="1.0" encoding="UTF-8"?><svg xmlns="http://www.w3.org/2000/svg" xmlns:xlink="http://www.w3.org/1999/xlink" width="1000px" height="1000px" version="1.1"><g id="surface1"><path style="fill:none;stroke-width:0.999996;stroke-linecap:butt;stroke-linejoin:miter;stroke:rgb(0%,0%,0%);stroke-opacity:1;stroke-miterlimit:4" d="M191.019531 470.010156C191.019531 470.580078 190.556172 471.042109 189.984688 471.042109 189.413125 471.042109 188.949766 470.580078 188.949766 470.010156 188.949766 469.440234 189.413125 468.978203 189.984688 468.978203 190.556172 468.978203 191.019531 469.440234 191.019531 470.010156zM189.327031 473.091953C189.327031 473.661875 188.86375 474.123906 188.292188 474.123906 187.720625 474.123906 187.257344 473.661875 187.257344 473.091953 187.257344 472.521953 187.720625 472.06 188.292188 472.06 188.86375 472.06 189.327031 472.521953 189.327031 473.091953zM192.711953 473.091953C192.711953 473.661875 192.248594 474.123906 191.677031 474.123906 191.105547 474.123906 190.642188 473.661875 190.642188 473.091953 190.642188 472.521953 191.105547 472.06 191.677031 472.06 192.248594 472.06 192.711953 472.521953 192.711953 473.091953zM192.711953 473.091953" transform="matrix(50,0,0,50,-9000,-23000)"/><path style="stroke:none;fill-rule:nonzero;fill:rgb(0%,0%,0%);fill-opacity:1" d="M 824.421875 439.160156 C 824.414062 441.203125 824.347656 443.246094 824.21875 445.285156 "/><path style="fill:none;stroke-width:0.999996;stroke-linecap:butt;stroke-linejoin:miter;stroke:rgb(0%,0%,0%);stroke-opacity:1;stroke-miterlimit:4" d="M194.546094 469.996406C194.546094 470.566328 194.082812 471.028359 193.51125 471.028359 192.939687 471.028359 192.476406 470.566328 192.476406 469.996406 192.476406 469.426484 192.939687 468.964453 193.51125 468.964453 194.082812 468.964453 194.546094 469.426484 194.546094 469.996406zM187.522266 470.003203C187.522266 470.573125 187.058984 471.035156 186.487422 471.035156 185.915859 471.035156 185.452578 470.573125 185.452578 470.003203 185.452578 469.433281 185.915859 468.97125 186.487422 468.97125 187.058984 468.97125 187.522266 469.433281 187.522266 470.003203zM189.336641 466.90875C189.336641 467.478672 188.873359 467.940703 188.301797 467.940703 187.730234 467.940703 187.266953 467.478672 187.266953 466.90875 187.266953 466.338828 187.730234 465.876797 188.301797 465.876797 188.873359 465.876797 189.336641 466.338828 189.336641 466.90875zM192.721563 466.90875C192.721563 467.478672 192.258203 467.940703 191.686719 467.940703 191.115156 467.940703 190.651797 467.478672 190.651797 466.90875 190.651797 466.338828 191.115156 465.876797 191.686719 465.876797 192.258203 465.876797 192.721563 466.338828 192.721563 466.90875zM192.721563 466.90875" transform="matrix(50,0,0,50,-9000,-23000)"/><path style="fill:none;stroke-width:1;stroke-linecap:butt;stroke-linejoin:miter;stroke:rgb(0%,0%,0%);stroke-opacity:1;stroke-miterlimit:4" d="M188.825 487.296328C188.825 488.400859 187.929531 489.296328 186.825 489.296328 185.720391 489.296328 184.825 488.400859 184.825 487.296328 184.825 486.191719 185.720391 485.296328 186.825 485.296328 187.929531 485.296328 188.825 486.191719 188.825 487.296328zM195.175 487.296328C195.175 488.400859 194.279531 489.296328 193.175 489.296328 192.070391 489.296328 191.175 488.400859 191.175 487.296328 191.175 486.191719 192.070391 485.296328 193.175 485.296328 194.279531 485.296328 195.175 486.191719 195.175 487.296328zM195.175 487.296328" transform="matrix(50,0,0,50,-9000,-23000)"/></g></svg>