<?xml version="1.0" encoding="UTF-8" standalone="no"?>
<svg
   xmlns:dc="http://purl.org/dc/elements/1.1/"
   xmlns:cc="http://creativecommons.org/ns#"
   xmlns:rdf="http://www.w3.org/1999/02/22-rdf-syntax-ns#"
   xmlns:svg="http://www.w3.org/2000/svg"
   xmlns="http://www.w3.org/2000/svg"
   xmlns:sodipodi="http://sodipodi.sourceforge.net/DTD/sodipodi-0.dtd"
   xmlns:inkscape="http://www.inkscape.org/namespaces/inkscape"
   width="1000px"
   height="1000px"
   version="1.1"
   id="svg5"
   sodipodi:docname="0241-kiki.svg"
   inkscape:version="1.0.2-2 (e86c870879, 2021-01-15)">
  <metadata
     id="metadata11">
    <rdf:RDF>
      <cc:Work
         rdf:about="">
        <dc:format>image/svg+xml</dc:format>
        <dc:type
           rdf:resource="http://purl.org/dc/dcmitype/StillImage" />
      </cc:Work>
    </rdf:RDF>
  </metadata>
  <defs
     id="defs9" />
  <sodipodi:namedview
     pagecolor="#ffffff"
     bordercolor="#666666"
     borderopacity="1"
     objecttolerance="10"
     gridtolerance="10"
     guidetolerance="10"
     inkscape:pageopacity="0"
     inkscape:pageshadow="2"
     inkscape:window-width="893"
     inkscape:window-height="480"
     id="namedview7"
     showgrid="false"
     inkscape:zoom="0.24711111"
     inkscape:cx="500"
     inkscape:cy="500"
     inkscape:window-x="0"
     inkscape:window-y="0"
     inkscape:window-maximized="0"
     inkscape:current-layer="svg5" />
  <g
     id="g858">
    <path
       style="fill:none;stroke:#000000;stroke-width:50;stroke-linecap:round;stroke-linejoin:round;stroke-miterlimit:4;stroke-opacity:1"
       d="m 432.88419,385.93552 c 39.3203,-17.6135 58.42575,-51.383 100.72265,-124.6445 0,95.1955 16.8125,139.992 46.625,164.6015 29.8125,24.6135 59.93355,19.922 160.98825,50.512 -106.5547,32.988 -126.15235,59.0195 -151.35545,102.668 -25.1992,43.648 -22.6211,71.695 7.46095,159.6365 -71.9375,-71.832 -91.25395,-114.758 -141.168,-126.8905 -49.91405,-12.129 -102.53905,11.8555 -197.3789,60.363 64.66405,-77.4805 98.3203,-108.992 96.39065,-155.039 -1.9335,-46.047 -25.0547,-84.711 -87.9336,-147.59 78.8828,21.137 126.3281,33.9965 165.64845,16.383 z m 0,0"
       id="path2" />
  </g>
</svg>
