<?xml version="1.0" encoding="UTF-8"?><svg xmlns="http://www.w3.org/2000/svg" xmlns:xlink="http://www.w3.org/1999/xlink" width="1000px" height="1000px" version="1.1"><g id="surface1"><path style="fill:none;stroke-width:1;stroke-linecap:round;stroke-linejoin:round;stroke:rgb(0%,0%,0%);stroke-opacity:1;stroke-miterlimit:4" d="M 28.856563 487.779141 C 29.642969 487.426875 30.025078 486.751484 30.871016 485.28625 C 30.871016 487.190156 31.207266 488.086094 31.803516 488.578281 C 32.399766 489.070547 33.002187 488.976719 35.023281 489.588516 C 32.892187 490.248281 32.500234 490.768906 31.996172 491.641875 C 31.492188 492.514844 31.54375 493.075781 32.145391 494.834609 C 30.706641 493.397969 30.320312 492.539453 29.322031 492.296797 C 28.32375 492.054219 27.27125 492.533906 25.374453 493.504062 C 26.667734 491.954453 27.340859 491.324219 27.302266 490.403281 C 27.263594 489.482344 26.801172 488.709063 25.543594 487.451484 C 27.12125 487.874219 28.070156 488.131406 28.856563 487.779141 Z M 28.856563 487.779141 " transform="matrix(50,0,0,50,-1000,-24000)"/></g></svg>