<?xml version="1.0" encoding="UTF-8"?><svg xmlns="http://www.w3.org/2000/svg" xmlns:xlink="http://www.w3.org/1999/xlink" width="1000px" height="1000px" version="1.1"><g id="surface1"><path style="fill:none;stroke-width:0.999998;stroke-linecap:round;stroke-linejoin:round;stroke:rgb(0%,0%,0%);stroke-opacity:1;stroke-miterlimit:4" d="M 74.15625 489.752734 C 74.15625 489.752734 73.749063 492.401094 70 492.401094 C 66.250859 492.401094 65.84375 489.752734 65.84375 489.752734 Z M 74.15625 489.752734 " transform="matrix(50,0,0,50,-3000,-24000)"/><path style="fill:none;stroke-width:1;stroke-linecap:round;stroke-linejoin:round;stroke:rgb(0%,0%,0%);stroke-opacity:1;stroke-miterlimit:4" d="M 70.000078 488.335547 L 70.000078 486.690547 " transform="matrix(50,0,0,50,-3000,-24000)"/><path style="stroke:none;fill-rule:nonzero;fill:rgb(0%,0%,0%);fill-opacity:1" d="M550 715.390625C550 743.003906 527.613281 765.390625 500 765.390625 472.386719 765.390625 450 743.003906 450 715.390625 450 687.777344 472.386719 665.390625 500 665.390625 527.613281 665.390625 550 687.777344 550 715.390625zM416.296875 312.730469C416.296875 347.246094 388.3125 375.230469 353.796875 375.230469 319.277344 375.230469 291.296875 347.246094 291.296875 312.730469 291.296875 278.210938 319.277344 250.230469 353.796875 250.230469 388.3125 250.230469 416.296875 278.210938 416.296875 312.730469zM708.585938 312.730469C708.585938 347.246094 680.605469 375.230469 646.085938 375.230469 611.570312 375.230469 583.585938 347.246094 583.585938 312.730469 583.585938 278.210938 611.570312 250.230469 646.085938 250.230469 680.605469 250.230469 708.585938 278.210938 708.585938 312.730469zM708.585938 312.730469"/></g></svg>