<?xml version="1.0" encoding="UTF-8" standalone="no"?>
<svg
   xmlns:dc="http://purl.org/dc/elements/1.1/"
   xmlns:cc="http://creativecommons.org/ns#"
   xmlns:rdf="http://www.w3.org/1999/02/22-rdf-syntax-ns#"
   xmlns:svg="http://www.w3.org/2000/svg"
   xmlns="http://www.w3.org/2000/svg"
   xmlns:sodipodi="http://sodipodi.sourceforge.net/DTD/sodipodi-0.dtd"
   xmlns:inkscape="http://www.inkscape.org/namespaces/inkscape"
   width="1000px"
   height="1000px"
   version="1.1"
   id="svg9"
   sodipodi:docname="0243-kuntu.svg"
   inkscape:version="1.0.2-2 (e86c870879, 2021-01-15)">
  <metadata
     id="metadata15">
    <rdf:RDF>
      <cc:Work
         rdf:about="">
        <dc:format>image/svg+xml</dc:format>
        <dc:type
           rdf:resource="http://purl.org/dc/dcmitype/StillImage" />
      </cc:Work>
    </rdf:RDF>
  </metadata>
  <defs
     id="defs13" />
  <sodipodi:namedview
     pagecolor="#ffffff"
     bordercolor="#666666"
     borderopacity="1"
     objecttolerance="10"
     gridtolerance="10"
     guidetolerance="10"
     inkscape:pageopacity="0"
     inkscape:pageshadow="2"
     inkscape:window-width="893"
     inkscape:window-height="480"
     id="namedview11"
     showgrid="false"
     inkscape:zoom="0.24711111"
     inkscape:cx="500"
     inkscape:cy="500"
     inkscape:window-x="0"
     inkscape:window-y="0"
     inkscape:window-maximized="0"
     inkscape:current-layer="svg9" />
  <g
     id="g874">
    <path
       style="fill:none;stroke:#000000;stroke-width:49.9999;stroke-linecap:round;stroke-linejoin:round;stroke-miterlimit:4;stroke-opacity:1"
       d="m 707.8125,479.82596 c 0,0 -20.35935,132.41799 -207.8125,132.41799 -187.45705,0 -207.8125,-132.418 -207.8125,-132.418 z m 0,0"
       id="path2" />
    <path
       style="fill:none;stroke:#000000;stroke-width:50;stroke-linecap:round;stroke-linejoin:round;stroke-miterlimit:4;stroke-opacity:1"
       d="m 500.0039,408.96695 v -82.25"
       id="path4" />
    <path
       style="fill:#000000;fill-opacity:1;fill-rule:nonzero;stroke:none"
       d="m 550,707.58007 c 0,27.61329 -22.38672,50 -50,50 -27.61328,0 -50,-22.38671 -50,-50 0,-27.61328 22.38672,-50 50,-50 27.61328,0 50,22.38672 50,50 z M 416.29687,304.91993 c 0,34.51562 -27.98437,62.5 -62.5,62.5 -34.51953,0 -62.5,-27.98438 -62.5,-62.5 0,-34.51953 27.98047,-62.5 62.5,-62.5 34.51563,0 62.5,27.98047 62.5,62.5 z m 292.28907,0 c 0,34.51562 -27.98047,62.5 -62.5,62.5 -34.51563,0 -62.5,-27.98438 -62.5,-62.5 0,-34.51953 27.98437,-62.5 62.5,-62.5 34.51953,0 62.5,27.98047 62.5,62.5 z m 0,0"
       id="path6" />
  </g>
</svg>
