<?xml version="1.0" encoding="UTF-8" standalone="no"?>
<svg
   xmlns:dc="http://purl.org/dc/elements/1.1/"
   xmlns:cc="http://creativecommons.org/ns#"
   xmlns:rdf="http://www.w3.org/1999/02/22-rdf-syntax-ns#"
   xmlns:svg="http://www.w3.org/2000/svg"
   xmlns="http://www.w3.org/2000/svg"
   xmlns:sodipodi="http://sodipodi.sourceforge.net/DTD/sodipodi-0.dtd"
   xmlns:inkscape="http://www.inkscape.org/namespaces/inkscape"
   width="1000px"
   height="1000px"
   version="1.1"
   id="svg11"
   sodipodi:docname="0244-peto.svg"
   inkscape:version="1.0.2-2 (e86c870879, 2021-01-15)">
  <metadata
     id="metadata17">
    <rdf:RDF>
      <cc:Work
         rdf:about="">
        <dc:format>image/svg+xml</dc:format>
        <dc:type
           rdf:resource="http://purl.org/dc/dcmitype/StillImage" />
      </cc:Work>
    </rdf:RDF>
  </metadata>
  <defs
     id="defs15" />
  <sodipodi:namedview
     pagecolor="#ffffff"
     bordercolor="#666666"
     borderopacity="1"
     objecttolerance="10"
     gridtolerance="10"
     guidetolerance="10"
     inkscape:pageopacity="0"
     inkscape:pageshadow="2"
     inkscape:window-width="893"
     inkscape:window-height="480"
     id="namedview13"
     showgrid="false"
     inkscape:zoom="0.24711111"
     inkscape:cx="500"
     inkscape:cy="500"
     inkscape:window-x="0"
     inkscape:window-y="0"
     inkscape:window-maximized="0"
     inkscape:current-layer="svg11" />
  <g
     id="g882">
    <path
       style="fill:none;stroke:#000000;stroke-width:50.0002;stroke-linecap:round;stroke-linejoin:round;stroke-miterlimit:4;stroke-opacity:1"
       d="m 591.85341,280.72853 c 0,0 -32.79687,21.00011 -163.9844,90.0003 -131.1914,68.99599 -163.99216,59.9998 -163.99216,59.9998 0,0 56.51169,3.46882 163.99216,59.9962 131.18753,68.99989 163.9883,89.99611 163.9883,89.99611"
       id="path2" />
    <path
       style="fill:none;stroke:#000000;stroke-width:50.0002;stroke-linecap:round;stroke-linejoin:round;stroke-miterlimit:4;stroke-opacity:1"
       d="m 559.05654,301.72864 c 0,0 32.79687,69.00019 32.79687,128.99609 0,60.0001 -32.79687,128.99999 -32.79687,128.99999"
       id="path4" />
    <path
       style="fill:none;stroke:#000000;stroke-width:50.0002;stroke-linecap:round;stroke-linejoin:round;stroke-miterlimit:4;stroke-opacity:1"
       d="m 582.01745,370.72883 c 0,0 -55.75781,0.007 -55.75781,59.9998 0,59.9962 55.75781,59.9962 55.75781,59.9962"
       id="path6" />
    <path
       style="fill:none;stroke:#000000;stroke-width:50;stroke-linecap:round;stroke-linejoin:round;stroke-miterlimit:4;stroke-opacity:1"
       d="m 665.9706,504.27156 c 100,100 86.76955,215 0,215 -86.76955,0 -100,-115 0,-215 z m 0,0"
       id="path8" />
  </g>
</svg>
