<?xml version="1.0" encoding="UTF-8"?><svg xmlns="http://www.w3.org/2000/svg" xmlns:xlink="http://www.w3.org/1999/xlink" width="1000px" height="1000px" version="1.1"><g id="surface1"><path style="fill:none;stroke-width:1.59402;stroke-linecap:round;stroke-linejoin:round;stroke:rgb(0%,0%,0%);stroke-opacity:1;stroke-miterlimit:4" d="M 94.470773 264.999965 C 94.470773 264.999965 93.470801 265.699981 89.470911 268.000035 C 85.470903 270.299958 84.470812 270.000081 84.470812 270.000081 C 84.470812 270.000081 86.193846 270.115709 89.470911 271.999998 C 93.470801 274.300051 94.470892 274.999937 94.470892 274.999937 " transform="matrix(32.797784,0,0,29.999301,-2522.549152,-7673.356628)"/><path style="fill:none;stroke-width:1.59402;stroke-linecap:round;stroke-linejoin:round;stroke:rgb(0%,0%,0%);stroke-opacity:1;stroke-miterlimit:4" d="M 93.470801 265.699981 C 93.470801 265.699981 94.470773 268.000035 94.470773 269.999951 C 94.470773 271.999998 93.470801 274.300051 93.470801 274.300051 " transform="matrix(32.797784,0,0,29.999301,-2522.549152,-7673.356628)"/><path style="fill:none;stroke-width:1.59402;stroke-linecap:round;stroke-linejoin:round;stroke:rgb(0%,0%,0%);stroke-opacity:1;stroke-miterlimit:4" d="M 94.170876 268.000035 C 94.170876 268.000035 92.470828 268.000295 92.470828 270.000081 C 92.470828 271.999998 94.170876 271.999998 94.170876 271.999998 " transform="matrix(32.797784,0,0,29.999301,-2522.549152,-7673.356628)"/><path style="fill:none;stroke-width:1;stroke-linecap:round;stroke-linejoin:round;stroke:rgb(0%,0%,0%);stroke-opacity:1;stroke-miterlimit:4" d="M 93 490 C 95 492 94.735391 494.3 93 494.3 C 91.264609 494.3 91 492 93 490 Z M 93 490 " transform="matrix(50,0,0,50,-4000,-24000)"/></g></svg>