<?xml version="1.0" encoding="UTF-8"?><svg xmlns="http://www.w3.org/2000/svg" xmlns:xlink="http://www.w3.org/1999/xlink" width="1000px" height="1000px" version="1.1"><g id="surface1"><path style="fill:none;stroke-width:1.13533;stroke-linecap:round;stroke-linejoin:round;stroke:rgb(0%,0%,0%);stroke-opacity:1;stroke-miterlimit:4" d="M 130.000058 47.987523 C 126.485488 45.994745 124.999973 48.700034 124.999973 50.699997 C 124.999973 52.69996 126.847908 54.299983 130.000058 54.299983 C 133.190171 54.299983 135.036065 52.700492 134.999965 50.700263 C 134.963865 48.700034 133.476576 46.016298 130.000058 47.987523 " transform="matrix(44.039881,0,0,44.039881,-5225.183201,-1662.892151)"/><path style="fill:none;stroke-width:1.13533;stroke-linecap:round;stroke-linejoin:round;stroke:rgb(0%,0%,0%);stroke-opacity:1;stroke-miterlimit:4" d="M 129.992696 47.987523 C 130.09053 47.833721 128.504875 44.646003 126.493471 44.883536 " transform="matrix(44.039881,0,0,44.039881,-5225.183201,-1662.892151)"/><path style="fill:none;stroke-width:1.13533;stroke-linecap:round;stroke-linejoin:round;stroke:rgb(0%,0%,0%);stroke-opacity:1;stroke-miterlimit:4" d="M129.992696 47.987523C129.860625 48.002424 130.914712 45.528193 133.405973 45.341661M129.992696 47.692425C129.940541 47.718502 130.461554 45.732465 129.915085 43.930564" transform="matrix(44.039881,0,0,44.039881,-5225.183201,-1662.892151)"/></g></svg>