<?xml version="1.0" encoding="UTF-8"?><svg xmlns="http://www.w3.org/2000/svg" xmlns:xlink="http://www.w3.org/1999/xlink" width="1000px" height="1000px" version="1.1"><g id="surface1"><path style="stroke:none;fill-rule:nonzero;fill:rgb(0%,0%,0%);fill-opacity:1" d="M400 720.355469C400 747.96875 377.613281 770.355469 350 770.355469 322.386719 770.355469 300 747.96875 300 720.355469 300 692.738281 322.386719 670.355469 350 670.355469 377.613281 670.355469 400 692.738281 400 720.355469zM700 720.355469C700 747.96875 677.613281 770.355469 650 770.355469 622.386719 770.355469 600 747.96875 600 720.355469 600 692.738281 622.386719 670.355469 650 670.355469 677.613281 670.355469 700 692.738281 700 720.355469zM700 720.355469"/><path style="fill:none;stroke-width:1;stroke-linecap:round;stroke-linejoin:round;stroke:rgb(0%,0%,0%);stroke-opacity:1;stroke-miterlimit:4" d="M 125.529141 492 L 128.058359 492 C 128.058359 492 127.000156 487.470859 130.000078 487.470781 C 133 487.470781 131.941641 492 131.941641 492 L 134.470859 492 C 135.542656 488 134 485.225391 130.000078 485.135703 C 126 485.135703 124.457344 488 125.529141 492 Z M 125.529141 492 " transform="matrix(50,0,0,50,-6000,-24000)"/></g></svg>