<?xml version="1.0" encoding="UTF-8"?><svg xmlns="http://www.w3.org/2000/svg" xmlns:xlink="http://www.w3.org/1999/xlink" width="1000px" height="1000px" version="1.1"><g id="surface1"><path style="fill:none;stroke-width:0.999996;stroke-linecap:round;stroke-linejoin:round;stroke:rgb(0%,0%,0%);stroke-opacity:1;stroke-miterlimit:4" d="M184.937734 495 186.342266 493.174375C186.342266 493.174375 186.300078 494.988984 187.609297 494.965859 188.918516 494.942734 189.440234 492.223047 189.440234 492.223047 189.440234 492.223047 189.886719 494.978203 191.333828 494.978203 192.780937 494.978203 192.544922 491.342969 192.544922 491.342969M194.937734 495C194.937734 492 195.244766 489.800391 194.470078 489.017812" transform="matrix(50,0,0,50,-9000,-24000)"/><path style="fill:none;stroke-width:1;stroke-linecap:butt;stroke-linejoin:miter;stroke:rgb(0%,0%,0%);stroke-opacity:1;stroke-miterlimit:4" d="M188.825 487.296328C188.825 488.400859 187.929531 489.296328 186.825 489.296328 185.720391 489.296328 184.825 488.400859 184.825 487.296328 184.825 486.191719 185.720391 485.296328 186.825 485.296328 187.929531 485.296328 188.825 486.191719 188.825 487.296328zM195.175 487.296328C195.175 488.400859 194.279531 489.296328 193.175 489.296328 192.070391 489.296328 191.175 488.400859 191.175 487.296328 191.175 486.191719 192.070391 485.296328 193.175 485.296328 194.279531 485.296328 195.175 486.191719 195.175 487.296328zM195.175 487.296328" transform="matrix(50,0,0,50,-9000,-24000)"/><path style="fill:none;stroke-width:1;stroke-linecap:round;stroke-linejoin:round;stroke:rgb(0%,0%,0%);stroke-opacity:1;stroke-miterlimit:4" d="M 186.342266 493.174375 C 186.397578 490.936797 185.675156 490.514219 186 489.108281 " transform="matrix(50,0,0,50,-9000,-24000)"/></g></svg>