<?xml version="1.0" encoding="UTF-8"?><svg xmlns="http://www.w3.org/2000/svg" xmlns:xlink="http://www.w3.org/1999/xlink" width="1000px" height="1000px" version="1.1"><g id="surface1"><path style="fill:none;stroke-width:1;stroke-linecap:round;stroke-linejoin:round;stroke:rgb(0%,0%,0%);stroke-opacity:1;stroke-miterlimit:4" d="M 185 495 C 185 495 185 488 185 488 C 185 488 187.803828 488 187.803828 488 C 187.803828 488 187.803828 495 187.803828 495 C 187.803828 495 187.803828 485 187.803828 485 C 187.803828 485 192.195156 485 192.195156 485 C 192.195156 485 192.195156 495 192.195156 495 C 192.195156 495 192.195156 490.4125 192.195156 490.4125 C 192.195156 490.4125 195 490.4125 195 490.4125 C 195 490.4125 195 495 195 495 C 195 495 185 495 185 495 Z M 185 495 " transform="matrix(50,0,0,50,-9000,-24000)"/><path style="stroke:none;fill-rule:nonzero;fill:rgb(0%,0%,0%);fill-opacity:1" d="M 548.542969 375 C 548.542969 402.617188 526.15625 425 498.542969 425 C 470.925781 425 448.542969 402.617188 448.542969 375 C 448.542969 347.386719 470.925781 325 498.542969 325 C 526.15625 325 548.542969 347.386719 548.542969 375 Z M 548.542969 375 "/></g></svg>