<svg xmlns="http://www.w3.org/2000/svg" width="1000" height="1000"><defs/><g fill="none" stroke="#000" stroke-width="50"><path d="M750 500c0 138.07-111.93 250-250 250S250 638.07 250 500s111.93-250 250-250 250 111.93 250 250zm0 0" stroke-linecap="round" stroke-linejoin="round"/><path d="M250 500.004h250.004V250v500-250l249.996.004m-991.25 804.789c0 55.23-44.773 100-100 100-55.23 0-100-44.77-100-100 0-55.227 44.77-100 100-100 55.227 0 100 44.773 100 100zm1682.5 0c0 55.23-44.773 100-100 100-55.23 0-100-44.77-100-100 0-55.227 44.77-100 100-100 55.227 0 100 44.773 100 100zm0 0"/></g></svg>