<svg xmlns="http://www.w3.org/2000/svg" width="1000" height="1000"><defs/><path d="M300 285h294.168s159.797-4.906 159.797 172.016C753.965 633.934 541.25 600 541.25 600v150M250 750V600m97.082 150V600m97.082 150V600" fill="none" stroke-linecap="round" stroke-linejoin="round" stroke="#000" stroke-width="50"/><path d="M519.168 450c0 27.613-22.387 50-50 50s-50-22.387-50-50 22.387-50 50-50 50 22.387 50 50zm151.457 0c0 27.613-22.383 50-50 50-27.613 0-50-22.387-50-50s22.387-50 50-50c27.617 0 50 22.387 50 50zm0 0"/></svg>