<svg xmlns="http://www.w3.org/2000/svg" width="1000" height="1000"><defs/><path d="M435.633 462.473C223.734 597.887 161.102 348.82 273.457 266.87c112.36-81.945 195.652 54.188 162.152 195.602-26.972 113.867-43.097 288.558-43.097 288.558s147.538-324.08 281.41-296.296c133.87 27.79 153.515 190.008-1.074 239.332" fill="none" stroke-linecap="round" stroke-linejoin="round" stroke="#000" stroke-width="50"/><path d="M702.926 573.852c0 27.613-22.387 50-50 50-27.614 0-50-22.387-50-50 0-27.618 22.386-50 50-50 27.613 0 50 22.382 50 50zm0 0"/></svg>