<svg xmlns="http://www.w3.org/2000/svg" width="1000" height="1000"><defs/><path d="M499.402 390.613v-150M652.11 390.555l75-129.903M346.691 390.555l-75-129.903M537.766 583.77c20.054-9.965 38.964 11.933 41.316 30.078 4.504 34.75-28.621 60.843-60.879 61.25-48.668.609-83.265-45.504-81.183-91.684 2.816-62.488 62.43-105.879 122.48-101.117 76.297 6.05 128.594 79.379 121.055 153.285-9.196 90.102-96.336 151.36-184.086 140.988-103.91-12.285-174.16-113.304-160.922-214.89 2.781-21.36 9.008-42.239 18.293-61.672" stroke-width="50" fill="none" stroke-linecap="round" stroke-linejoin="round" stroke="#000"/></svg>