<svg xmlns="http://www.w3.org/2000/svg" width="1000" height="1000"><defs/><path d="M380.89 489.703c0 27.617-22.386 50-50 50-27.613 0-50-22.383-50-50 0-27.613 22.387-50 50-50 27.614 0 50 22.387 50 50zm133.997 0c0 27.617-22.383 50-50 50-27.614 0-50-22.383-50-50 0-27.613 22.386-50 50-50 27.617 0 50 22.387 50 50zm0 0"/><path d="M250 735h400c50 0 100 0 100-75.586 0-146.492-170.281-135.828-170.281-135.828 0-212.02-113.98-252.332-212.008-252.902L250 270" fill="none" stroke-linecap="round" stroke-linejoin="round" stroke="#000" stroke-width="50"/></svg>