<svg xmlns="http://www.w3.org/2000/svg" width="1000" height="1000"><defs/><g fill="none" stroke-linecap="round" stroke-linejoin="round" stroke="#000" stroke-width="50"><path d="M500.004 400C440 400 400 448.723 400 500.008c0 51.289 45.848 99.996 100.004 99.992C554.16 599.996 600 550.645 600 500c0-50.648-39.992-100-99.996-100zm0 0"/><path d="M600.242 500.008S611.668 600 646.542 600C700 600 700 500.012 700 464.238 700 364.172 614.004 285 500.004 285 386.004 285 300 400.02 300 500.008 300 615.785 395.293 715 500.004 715c37.351 0 67.96-5.79 109.48-29.758"/></g></svg>