<svg xmlns="http://www.w3.org/2000/svg" width="1000" height="1000"><defs/><path d="M276.457 469.285c6.242-107.637 52.055-100.816 41.734-106.66-10.52-5.957-29.628-60.816-12.265-95.816 20.531-36.45 80.46-.696 110.793 18.191 23.976-10.02 77.957-13.46 140.558 0 59.145 12.715 119.18 49.512 119.18 50.34 0 .82 75.055-21.496 87.527 4.133 12.473 25.632-37.527 81.855-37.527 81.855v148.004C726.457 600 696.184 750 696.184 750H276.457zm0 0" fill="none" stroke-width="13.25" stroke-linecap="round" stroke-linejoin="round" stroke="#000"/><path d="M449.793 453.574c0 15.07-8.887 27.285-19.844 27.285-10.96 0-19.844-12.214-19.844-27.285 0-15.066 8.883-27.285 19.844-27.285 10.957 0 19.844 12.219 19.844 27.285zm192.648 36.383c0 14.152-7.035 25.629-15.71 25.629-8.676 0-15.708-11.477-15.708-25.629 0-14.156 7.032-25.633 15.707-25.633 8.676 0 15.711 11.477 15.711 25.633zm0 0"/><path d="M486.586 490.492c25.402 4.957 45.246-19.969 45.246-19.969s11.547 20.383 37.848 29.489M466.117 377.219l18.707-101.145m50.281 104.653l8.77-98.22m61.391 116.345l-5.262-100.559M315.57 459.656c-1.754-.3-37.418-1.46-37.418-1.46m34.493 43.554l-35.665-2.34m24.266 41.805l-23.094-2.047m68.988-71.035l25.434 6.722m-27.187 28.356l26.308-11.398m296.793 26.667l14.469-7.335m-17.152 27.394l17.777 8.227m17.152-27.871l24.805 3.304m-22.789 35.969l23.562 5.375m-21.859 35.555l18.192 2.476m-10.305 66.805s-47.442-63.145-90.707-71.914c-43.262-8.77-69.57-4.68-71.324 25.723-1.758 30.402 18.707 70.746 46.77 87.699 28.062 16.957 69.573 40.34 69.573 40.34M314.691 630.375c0-19.004 33.211-38.586 70.16-38.586 37.294 0 115.958 7.211 135.055 26.309 16.746 16.75 10.262 49.945-14.617 64.308-24.934 14.399-109.55.563-135.64-6.43-24.52-6.57-54.958-13.835-54.958-45.601zm8.188-269.527L416.719 285m257.535 48.957c5.531 41.512 20.082 73.613 52.203 87.371" fill="none" stroke-width="13.25" stroke-linecap="round" stroke-linejoin="round" stroke="#000"/></svg>